<svg xmlns="http://www.w3.org/2000/svg" viewBox="0 0 1200 320" width="1200" height="320" preserveAspectRatio="xMidYMid meet" role="img" aria-label="Corpus recall by FP level"><style>svg { background: #fdfdfd; }.frame { fill: #fff; stroke: #d8dde3; stroke-width: 1; }.grid { stroke: #eef0f3; stroke-width: 1; }.tick { stroke: #b8bfc7; stroke-width: 1; }.axis-label { fill: #5f6b78; font-family: -apple-system, BlinkMacSystemFont, "Segoe UI", system-ui, sans-serif; font-size: 12px; }.x-label { fill: #5f6b78; font-family: -apple-system, BlinkMacSystemFont, "Segoe UI", system-ui, sans-serif; font-size: 11px; }.axis-title { fill: #2d3540; font-family: -apple-system, BlinkMacSystemFont, "Segoe UI", system-ui, sans-serif; font-size: 12px; font-weight: 500; }.title { fill: #1a232e; font-family: -apple-system, BlinkMacSystemFont, "Segoe UI", system-ui, sans-serif; font-size: 14px; font-weight: 600; }.deploy-marker { stroke: #aab2bd; stroke-width: 1; stroke-dasharray: 5,4; }.deploy-label { fill: #6b7480; font-family: -apple-system, BlinkMacSystemFont, "Segoe UI", system-ui, sans-serif; font-size: 11px; font-style: italic; }.curve { fill: none; stroke-width: 2.25; stroke-linejoin: round; stroke-linecap: round; }.marker { stroke: #fff; stroke-width: 1; }.legend-text { fill: #2d3540; font-family: -apple-system, BlinkMacSystemFont, "Segoe UI", system-ui, sans-serif; font-size: 12px; font-weight: 500; }</style><text class="title" x="70" y="16">Corpus recall by FP level</text><rect class="frame" x="70" y="24" width="1102" height="236"/><line class="grid" x1="70" y1="260.0" x2="1172" y2="260.0"/><text class="axis-label" x="60" y="264.0" text-anchor="end">0%</text><line class="grid" x1="70" y1="201.0" x2="1172" y2="201.0"/><text class="axis-label" x="60" y="205.0" text-anchor="end">25%</text><line class="grid" x1="70" y1="142.0" x2="1172" y2="142.0"/><text class="axis-label" x="60" y="146.0" text-anchor="end">50%</text><line class="grid" x1="70" y1="83.0" x2="1172" y2="83.0"/><text class="axis-label" x="60" y="87.0" text-anchor="end">75%</text><line class="grid" x1="70" y1="24.0" x2="1172" y2="24.0"/><text class="axis-label" x="60" y="28.0" text-anchor="end">100%</text><line class="deploy-marker" x1="621.0" y1="24" x2="621.0" y2="260"/><text class="deploy-label" x="625.0" y="36" text-anchor="start">deploy L50</text><line class="tick" x1="70.0" y1="260" x2="70.0" y2="264"/><text class="x-label" x="70.0" y="278" text-anchor="middle">L0</text><line class="tick" x1="131.2" y1="260" x2="131.2" y2="264"/><text class="x-label" x="131.2" y="278" text-anchor="middle">L1</text><line class="tick" x1="192.4" y1="260" x2="192.4" y2="264"/><text class="x-label" x="192.4" y="278" text-anchor="middle">L2</text><line class="tick" x1="253.7" y1="260" x2="253.7" y2="264"/><text class="x-label" x="253.7" y="278" text-anchor="middle">L3</text><line class="tick" x1="314.9" y1="260" x2="314.9" y2="264"/><text class="x-label" x="314.9" y="278" text-anchor="middle">L5</text><line class="tick" x1="376.1" y1="260" x2="376.1" y2="264"/><text class="x-label" x="376.1" y="278" text-anchor="middle">L10</text><line class="tick" x1="437.3" y1="260" x2="437.3" y2="264"/><text class="x-label" x="437.3" y="278" text-anchor="middle">L20</text><line class="tick" x1="498.6" y1="260" x2="498.6" y2="264"/><text class="x-label" x="498.6" y="278" text-anchor="middle">L30</text><line class="tick" x1="559.8" y1="260" x2="559.8" y2="264"/><text class="x-label" x="559.8" y="278" text-anchor="middle">L40</text><line class="tick" x1="621.0" y1="260" x2="621.0" y2="264"/><text class="x-label" x="621.0" y="278" text-anchor="middle">L50</text><line class="tick" x1="682.2" y1="260" x2="682.2" y2="264"/><text class="x-label" x="682.2" y="278" text-anchor="middle">L60</text><line class="tick" x1="743.4" y1="260" x2="743.4" y2="264"/><text class="x-label" x="743.4" y="278" text-anchor="middle">L70</text><line class="tick" x1="804.7" y1="260" x2="804.7" y2="264"/><text class="x-label" x="804.7" y="278" text-anchor="middle">L80</text><line class="tick" x1="865.9" y1="260" x2="865.9" y2="264"/><text class="x-label" x="865.9" y="278" text-anchor="middle">L90</text><line class="tick" x1="927.1" y1="260" x2="927.1" y2="264"/><text class="x-label" x="927.1" y="278" text-anchor="middle">L100</text><line class="tick" x1="988.3" y1="260" x2="988.3" y2="264"/><text class="x-label" x="988.3" y="278" text-anchor="middle">L200</text><line class="tick" x1="1049.6" y1="260" x2="1049.6" y2="264"/><text class="x-label" x="1049.6" y="278" text-anchor="middle">L300</text><line class="tick" x1="1110.8" y1="260" x2="1110.8" y2="264"/><text class="x-label" x="1110.8" y="278" text-anchor="middle">L500</text><line class="tick" x1="1172.0" y1="260" x2="1172.0" y2="264"/><text class="x-label" x="1172.0" y="278" text-anchor="middle">L1000</text><text class="axis-title" x="621.0" y="304" text-anchor="middle">Severity level (FP per 100M benigns)</text><path class="curve" d="M131.2,137.1 L192.4,137.1 L253.7,137.1 L314.9,137.1 L376.1,137.1 L437.3,137.1 L498.6,137.1 L559.8,137.1 L621.0,137.1 L682.2,137.1 L743.4,137.1 L804.7,137.1 L865.9,137.4 L927.1,137.2 L988.3,137.1 L1049.6,137.1 L1110.8,137.3 L1172.0,137.0" stroke="#06c"/><circle class="marker" cx="131.2" cy="137.1" r="3.5" fill="#06c"/><circle class="marker" cx="192.4" cy="137.1" r="3.5" fill="#06c"/><circle class="marker" cx="253.7" cy="137.1" r="3.5" fill="#06c"/><circle class="marker" cx="314.9" cy="137.1" r="3.5" fill="#06c"/><circle class="marker" cx="376.1" cy="137.1" r="3.5" fill="#06c"/><circle class="marker" cx="437.3" cy="137.1" r="3.5" fill="#06c"/><circle class="marker" cx="498.6" cy="137.1" r="3.5" fill="#06c"/><circle class="marker" cx="559.8" cy="137.1" r="3.5" fill="#06c"/><circle class="marker" cx="621.0" cy="137.1" r="3.5" fill="#06c"/><circle class="marker" cx="682.2" cy="137.1" r="3.5" fill="#06c"/><circle class="marker" cx="743.4" cy="137.1" r="3.5" fill="#06c"/><circle class="marker" cx="804.7" cy="137.1" r="3.5" fill="#06c"/><circle class="marker" cx="865.9" cy="137.4" r="3.5" fill="#06c"/><circle class="marker" cx="927.1" cy="137.2" r="3.5" fill="#06c"/><circle class="marker" cx="988.3" cy="137.1" r="3.5" fill="#06c"/><circle class="marker" cx="1049.6" cy="137.1" r="3.5" fill="#06c"/><circle class="marker" cx="1110.8" cy="137.3" r="3.5" fill="#06c"/><circle class="marker" cx="1172.0" cy="137.0" r="3.5" fill="#06c"/><path class="curve" d="M131.2,206.3 L192.4,206.2 L253.7,206.2 L314.9,206.2 L376.1,206.2 L437.3,206.0 L498.6,205.9 L559.8,205.8 L621.0,205.6 L682.2,205.5 L743.4,205.4 L804.7,205.2 L865.9,205.1 L927.1,205.0 L988.3,184.1 L1049.6,184.1 L1110.8,176.4 L1172.0,161.7" stroke="#888"/><circle class="marker" cx="131.2" cy="206.3" r="3.5" fill="#888"/><circle class="marker" cx="192.4" cy="206.2" r="3.5" fill="#888"/><circle class="marker" cx="253.7" cy="206.2" r="3.5" fill="#888"/><circle class="marker" cx="314.9" cy="206.2" r="3.5" fill="#888"/><circle class="marker" cx="376.1" cy="206.2" r="3.5" fill="#888"/><circle class="marker" cx="437.3" cy="206.0" r="3.5" fill="#888"/><circle class="marker" cx="498.6" cy="205.9" r="3.5" fill="#888"/><circle class="marker" cx="559.8" cy="205.8" r="3.5" fill="#888"/><circle class="marker" cx="621.0" cy="205.6" r="3.5" fill="#888"/><circle class="marker" cx="682.2" cy="205.5" r="3.5" fill="#888"/><circle class="marker" cx="743.4" cy="205.4" r="3.5" fill="#888"/><circle class="marker" cx="804.7" cy="205.2" r="3.5" fill="#888"/><circle class="marker" cx="865.9" cy="205.1" r="3.5" fill="#888"/><circle class="marker" cx="927.1" cy="205.0" r="3.5" fill="#888"/><circle class="marker" cx="988.3" cy="184.1" r="3.5" fill="#888"/><circle class="marker" cx="1049.6" cy="184.1" r="3.5" fill="#888"/><circle class="marker" cx="1110.8" cy="176.4" r="3.5" fill="#888"/><circle class="marker" cx="1172.0" cy="161.7" r="3.5" fill="#888"/><line x1="1095.0" y1="12.0" x2="1113.0" y2="12.0" stroke="#888" stroke-width="2.25" stroke-linecap="round"/><circle cx="1104.0" cy="12.0" r="3.5" fill="#888" stroke="#fff" stroke-width="1"/><text class="legend-text" x="1119.0" y="16.0">general</text><line x1="885.0" y1="12.0" x2="903.0" y2="12.0" stroke="#06c" stroke-width="2.25" stroke-linecap="round"/><circle cx="894.0" cy="12.0" r="3.5" fill="#06c" stroke="#fff" stroke-width="1"/><text class="legend-text" x="909.0" y="16.0">corpus-weighted ensemble</text></svg>