<svg xmlns="http://www.w3.org/2000/svg" viewBox="0 0 1200 320" width="1200" height="320" preserveAspectRatio="xMidYMid meet" role="img" aria-label="Corpus recall by FP level"><style>svg { background: #fdfdfd; }.frame { fill: #fff; stroke: #d8dde3; stroke-width: 1; }.grid { stroke: #eef0f3; stroke-width: 1; }.tick { stroke: #b8bfc7; stroke-width: 1; }.axis-label { fill: #5f6b78; font-family: -apple-system, BlinkMacSystemFont, "Segoe UI", system-ui, sans-serif; font-size: 12px; }.x-label { fill: #5f6b78; font-family: -apple-system, BlinkMacSystemFont, "Segoe UI", system-ui, sans-serif; font-size: 11px; }.axis-title { fill: #2d3540; font-family: -apple-system, BlinkMacSystemFont, "Segoe UI", system-ui, sans-serif; font-size: 12px; font-weight: 500; }.title { fill: #1a232e; font-family: -apple-system, BlinkMacSystemFont, "Segoe UI", system-ui, sans-serif; font-size: 14px; font-weight: 600; }.deploy-marker { stroke: #aab2bd; stroke-width: 1; stroke-dasharray: 5,4; }.deploy-label { fill: #6b7480; font-family: -apple-system, BlinkMacSystemFont, "Segoe UI", system-ui, sans-serif; font-size: 11px; font-style: italic; }.curve { fill: none; stroke-width: 2.25; stroke-linejoin: round; stroke-linecap: round; }.marker { stroke: #fff; stroke-width: 1; }.legend-text { fill: #2d3540; font-family: -apple-system, BlinkMacSystemFont, "Segoe UI", system-ui, sans-serif; font-size: 12px; font-weight: 500; }</style><text class="title" x="70" y="16">Corpus recall by FP level</text><rect class="frame" x="70" y="24" width="1102" height="236"/><line class="grid" x1="70" y1="260.0" x2="1172" y2="260.0"/><text class="axis-label" x="60" y="264.0" text-anchor="end">0%</text><line class="grid" x1="70" y1="201.0" x2="1172" y2="201.0"/><text class="axis-label" x="60" y="205.0" text-anchor="end">25%</text><line class="grid" x1="70" y1="142.0" x2="1172" y2="142.0"/><text class="axis-label" x="60" y="146.0" text-anchor="end">50%</text><line class="grid" x1="70" y1="83.0" x2="1172" y2="83.0"/><text class="axis-label" x="60" y="87.0" text-anchor="end">75%</text><line class="grid" x1="70" y1="24.0" x2="1172" y2="24.0"/><text class="axis-label" x="60" y="28.0" text-anchor="end">100%</text><line class="deploy-marker" x1="493.8" y1="24" x2="493.8" y2="260"/><text class="deploy-label" x="497.8" y="36" text-anchor="start">deploy L50</text><line class="tick" x1="70.0" y1="260" x2="70.0" y2="264"/><text class="x-label" x="70.0" y="278" text-anchor="middle">L0</text><line class="tick" x1="112.4" y1="260" x2="112.4" y2="264"/><text class="x-label" x="112.4" y="278" text-anchor="middle">L1</text><line class="tick" x1="154.8" y1="260" x2="154.8" y2="264"/><text class="x-label" x="154.8" y="278" text-anchor="middle">L2</text><line class="tick" x1="197.2" y1="260" x2="197.2" y2="264"/><text class="x-label" x="197.2" y="278" text-anchor="middle">L3</text><line class="tick" x1="239.5" y1="260" x2="239.5" y2="264"/><text class="x-label" x="239.5" y="278" text-anchor="middle">L4</text><line class="tick" x1="281.9" y1="260" x2="281.9" y2="264"/><text class="x-label" x="281.9" y="278" text-anchor="middle">L5</text><line class="tick" x1="324.3" y1="260" x2="324.3" y2="264"/><text class="x-label" x="324.3" y="278" text-anchor="middle">L10</text><line class="tick" x1="366.7" y1="260" x2="366.7" y2="264"/><text class="x-label" x="366.7" y="278" text-anchor="middle">L20</text><line class="tick" x1="409.1" y1="260" x2="409.1" y2="264"/><text class="x-label" x="409.1" y="278" text-anchor="middle">L30</text><line class="tick" x1="451.5" y1="260" x2="451.5" y2="264"/><text class="x-label" x="451.5" y="278" text-anchor="middle">L40</text><line class="tick" x1="493.8" y1="260" x2="493.8" y2="264"/><text class="x-label" x="493.8" y="278" text-anchor="middle">L50</text><line class="tick" x1="536.2" y1="260" x2="536.2" y2="264"/><text class="x-label" x="536.2" y="278" text-anchor="middle">L60</text><line class="tick" x1="578.6" y1="260" x2="578.6" y2="264"/><text class="x-label" x="578.6" y="278" text-anchor="middle">L70</text><line class="tick" x1="621.0" y1="260" x2="621.0" y2="264"/><text class="x-label" x="621.0" y="278" text-anchor="middle">L80</text><line class="tick" x1="663.4" y1="260" x2="663.4" y2="264"/><text class="x-label" x="663.4" y="278" text-anchor="middle">L90</text><line class="tick" x1="705.8" y1="260" x2="705.8" y2="264"/><text class="x-label" x="705.8" y="278" text-anchor="middle">L100</text><line class="tick" x1="748.2" y1="260" x2="748.2" y2="264"/><text class="x-label" x="748.2" y="278" text-anchor="middle">L200</text><line class="tick" x1="790.5" y1="260" x2="790.5" y2="264"/><text class="x-label" x="790.5" y="278" text-anchor="middle">L300</text><line class="tick" x1="832.9" y1="260" x2="832.9" y2="264"/><text class="x-label" x="832.9" y="278" text-anchor="middle">L500</text><line class="tick" x1="875.3" y1="260" x2="875.3" y2="264"/><text class="x-label" x="875.3" y="278" text-anchor="middle">L1000</text><line class="tick" x1="917.7" y1="260" x2="917.7" y2="264"/><text class="x-label" x="917.7" y="278" text-anchor="middle">L2000</text><line class="tick" x1="960.1" y1="260" x2="960.1" y2="264"/><text class="x-label" x="960.1" y="278" text-anchor="middle">L5000</text><line class="tick" x1="1002.5" y1="260" x2="1002.5" y2="264"/><text class="x-label" x="1002.5" y="278" text-anchor="middle">L7500</text><line class="tick" x1="1044.8" y1="260" x2="1044.8" y2="264"/><text class="x-label" x="1044.8" y="278" text-anchor="middle">L10000</text><line class="tick" x1="1087.2" y1="260" x2="1087.2" y2="264"/><text class="x-label" x="1087.2" y="278" text-anchor="middle">L15000</text><line class="tick" x1="1129.6" y1="260" x2="1129.6" y2="264"/><text class="x-label" x="1129.6" y="278" text-anchor="middle">L20000</text><line class="tick" x1="1172.0" y1="260" x2="1172.0" y2="264"/><text class="x-label" x="1172.0" y="278" text-anchor="middle">L25000</text><text class="axis-title" x="621.0" y="304" text-anchor="middle">Severity level (FP per 100M benigns)</text><path class="curve" d="M112.4,150.8 L154.8,150.8 L197.2,150.8 L239.5,150.8 L281.9,150.8 L324.3,139.9 L366.7,129.9 L409.1,126.3 L451.5,123.1 L493.8,121.9 L536.2,119.6 L578.6,117.6 L621.0,115.7 L663.4,114.6 L705.8,113.8 L748.2,110.0 L790.5,107.6 L832.9,104.9 L875.3,100.9 L917.7,95.8 L960.1,95.8 L1002.5,115.5 L1044.8,114.5 L1087.2,112.0 L1129.6,111.4 L1172.0,109.2" stroke="#06c"/><circle class="marker" cx="112.4" cy="150.8" r="3.5" fill="#06c"/><circle class="marker" cx="154.8" cy="150.8" r="3.5" fill="#06c"/><circle class="marker" cx="197.2" cy="150.8" r="3.5" fill="#06c"/><circle class="marker" cx="239.5" cy="150.8" r="3.5" fill="#06c"/><circle class="marker" cx="281.9" cy="150.8" r="3.5" fill="#06c"/><circle class="marker" cx="324.3" cy="139.9" r="3.5" fill="#06c"/><circle class="marker" cx="366.7" cy="129.9" r="3.5" fill="#06c"/><circle class="marker" cx="409.1" cy="126.3" r="3.5" fill="#06c"/><circle class="marker" cx="451.5" cy="123.1" r="3.5" fill="#06c"/><circle class="marker" cx="493.8" cy="121.9" r="3.5" fill="#06c"/><circle class="marker" cx="536.2" cy="119.6" r="3.5" fill="#06c"/><circle class="marker" cx="578.6" cy="117.6" r="3.5" fill="#06c"/><circle class="marker" cx="621.0" cy="115.7" r="3.5" fill="#06c"/><circle class="marker" cx="663.4" cy="114.6" r="3.5" fill="#06c"/><circle class="marker" cx="705.8" cy="113.8" r="3.5" fill="#06c"/><circle class="marker" cx="748.2" cy="110.0" r="3.5" fill="#06c"/><circle class="marker" cx="790.5" cy="107.6" r="3.5" fill="#06c"/><circle class="marker" cx="832.9" cy="104.9" r="3.5" fill="#06c"/><circle class="marker" cx="875.3" cy="100.9" r="3.5" fill="#06c"/><circle class="marker" cx="917.7" cy="95.8" r="3.5" fill="#06c"/><circle class="marker" cx="960.1" cy="95.8" r="3.5" fill="#06c"/><circle class="marker" cx="1002.5" cy="115.5" r="3.5" fill="#06c"/><circle class="marker" cx="1044.8" cy="114.5" r="3.5" fill="#06c"/><circle class="marker" cx="1087.2" cy="112.0" r="3.5" fill="#06c"/><circle class="marker" cx="1129.6" cy="111.4" r="3.5" fill="#06c"/><circle class="marker" cx="1172.0" cy="109.2" r="3.5" fill="#06c"/><path class="curve" d="M112.4,214.0 L154.8,213.8 L197.2,213.6 L239.5,213.5 L281.9,213.4 L324.3,212.3 L366.7,210.8 L409.1,209.5 L451.5,207.5 L493.8,205.9 L536.2,204.8 L578.6,202.7 L621.0,201.6 L663.4,200.5 L705.8,199.3 L748.2,189.5 L790.5,183.6 L832.9,177.4 L875.3,169.3 L917.7,158.3 L960.1,137.4 L1002.5,129.9 L1044.8,124.6 L1087.2,118.1 L1129.6,114.6 L1172.0,111.9" stroke="#888"/><circle class="marker" cx="112.4" cy="214.0" r="3.5" fill="#888"/><circle class="marker" cx="154.8" cy="213.8" r="3.5" fill="#888"/><circle class="marker" cx="197.2" cy="213.6" r="3.5" fill="#888"/><circle class="marker" cx="239.5" cy="213.5" r="3.5" fill="#888"/><circle class="marker" cx="281.9" cy="213.4" r="3.5" fill="#888"/><circle class="marker" cx="324.3" cy="212.3" r="3.5" fill="#888"/><circle class="marker" cx="366.7" cy="210.8" r="3.5" fill="#888"/><circle class="marker" cx="409.1" cy="209.5" r="3.5" fill="#888"/><circle class="marker" cx="451.5" cy="207.5" r="3.5" fill="#888"/><circle class="marker" cx="493.8" cy="205.9" r="3.5" fill="#888"/><circle class="marker" cx="536.2" cy="204.8" r="3.5" fill="#888"/><circle class="marker" cx="578.6" cy="202.7" r="3.5" fill="#888"/><circle class="marker" cx="621.0" cy="201.6" r="3.5" fill="#888"/><circle class="marker" cx="663.4" cy="200.5" r="3.5" fill="#888"/><circle class="marker" cx="705.8" cy="199.3" r="3.5" fill="#888"/><circle class="marker" cx="748.2" cy="189.5" r="3.5" fill="#888"/><circle class="marker" cx="790.5" cy="183.6" r="3.5" fill="#888"/><circle class="marker" cx="832.9" cy="177.4" r="3.5" fill="#888"/><circle class="marker" cx="875.3" cy="169.3" r="3.5" fill="#888"/><circle class="marker" cx="917.7" cy="158.3" r="3.5" fill="#888"/><circle class="marker" cx="960.1" cy="137.4" r="3.5" fill="#888"/><circle class="marker" cx="1002.5" cy="129.9" r="3.5" fill="#888"/><circle class="marker" cx="1044.8" cy="124.6" r="3.5" fill="#888"/><circle class="marker" cx="1087.2" cy="118.1" r="3.5" fill="#888"/><circle class="marker" cx="1129.6" cy="114.6" r="3.5" fill="#888"/><circle class="marker" cx="1172.0" cy="111.9" r="3.5" fill="#888"/><path class="curve" d="M112.4,38.6 L154.8,38.6 L197.2,38.6 L239.5,38.6 L281.9,38.6 L324.3,30.1 L366.7,29.5 L409.1,28.7 L451.5,28.2 L493.8,27.4 L536.2,26.9 L578.6,26.8 L621.0,26.7 L663.4,26.2 L705.8,26.2 L748.2,25.4 L790.5,25.2 L832.9,25.1 L875.3,25.0 L917.7,24.9 L960.1,30.0 L1002.5,29.7 L1044.8,29.5 L1087.2,29.3 L1129.6,28.8 L1172.0,28.6" stroke="#e07b00"/><circle class="marker" cx="112.4" cy="38.6" r="3.5" fill="#e07b00"/><circle class="marker" cx="154.8" cy="38.6" r="3.5" fill="#e07b00"/><circle class="marker" cx="197.2" cy="38.6" r="3.5" fill="#e07b00"/><circle class="marker" cx="239.5" cy="38.6" r="3.5" fill="#e07b00"/><circle class="marker" cx="281.9" cy="38.6" r="3.5" fill="#e07b00"/><circle class="marker" cx="324.3" cy="30.1" r="3.5" fill="#e07b00"/><circle class="marker" cx="366.7" cy="29.5" r="3.5" fill="#e07b00"/><circle class="marker" cx="409.1" cy="28.7" r="3.5" fill="#e07b00"/><circle class="marker" cx="451.5" cy="28.2" r="3.5" fill="#e07b00"/><circle class="marker" cx="493.8" cy="27.4" r="3.5" fill="#e07b00"/><circle class="marker" cx="536.2" cy="26.9" r="3.5" fill="#e07b00"/><circle class="marker" cx="578.6" cy="26.8" r="3.5" fill="#e07b00"/><circle class="marker" cx="621.0" cy="26.7" r="3.5" fill="#e07b00"/><circle class="marker" cx="663.4" cy="26.2" r="3.5" fill="#e07b00"/><circle class="marker" cx="705.8" cy="26.2" r="3.5" fill="#e07b00"/><circle class="marker" cx="748.2" cy="25.4" r="3.5" fill="#e07b00"/><circle class="marker" cx="790.5" cy="25.2" r="3.5" fill="#e07b00"/><circle class="marker" cx="832.9" cy="25.1" r="3.5" fill="#e07b00"/><circle class="marker" cx="875.3" cy="25.0" r="3.5" fill="#e07b00"/><circle class="marker" cx="917.7" cy="24.9" r="3.5" fill="#e07b00"/><circle class="marker" cx="960.1" cy="30.0" r="3.5" fill="#e07b00"/><circle class="marker" cx="1002.5" cy="29.7" r="3.5" fill="#e07b00"/><circle class="marker" cx="1044.8" cy="29.5" r="3.5" fill="#e07b00"/><circle class="marker" cx="1087.2" cy="29.3" r="3.5" fill="#e07b00"/><circle class="marker" cx="1129.6" cy="28.8" r="3.5" fill="#e07b00"/><circle class="marker" cx="1172.0" cy="28.6" r="3.5" fill="#e07b00"/><line x1="1053.0" y1="12.0" x2="1071.0" y2="12.0" stroke="#e07b00" stroke-width="2.25" stroke-linecap="round"/><circle cx="1062.0" cy="12.0" r="3.5" fill="#e07b00" stroke="#fff" stroke-width="1"/><text class="legend-text" x="1077.0" y="16.0">filetypes/elf</text><line x1="962.0" y1="12.0" x2="980.0" y2="12.0" stroke="#888" stroke-width="2.25" stroke-linecap="round"/><circle cx="971.0" cy="12.0" r="3.5" fill="#888" stroke="#fff" stroke-width="1"/><text class="legend-text" x="986.0" y="16.0">general</text><line x1="752.0" y1="12.0" x2="770.0" y2="12.0" stroke="#06c" stroke-width="2.25" stroke-linecap="round"/><circle cx="761.0" cy="12.0" r="3.5" fill="#06c" stroke="#fff" stroke-width="1"/><text class="legend-text" x="776.0" y="16.0">corpus-weighted ensemble</text></svg>