<svg xmlns="http://www.w3.org/2000/svg" viewBox="0 0 1200 320" width="1200" height="320" preserveAspectRatio="xMidYMid meet" role="img" aria-label="jar: recall by FP level"><style>svg { background: #fdfdfd; }.frame { fill: #fff; stroke: #d8dde3; stroke-width: 1; }.grid { stroke: #eef0f3; stroke-width: 1; }.tick { stroke: #b8bfc7; stroke-width: 1; }.axis-label { fill: #5f6b78; font-family: -apple-system, BlinkMacSystemFont, "Segoe UI", system-ui, sans-serif; font-size: 12px; }.x-label { fill: #5f6b78; font-family: -apple-system, BlinkMacSystemFont, "Segoe UI", system-ui, sans-serif; font-size: 11px; }.axis-title { fill: #2d3540; font-family: -apple-system, BlinkMacSystemFont, "Segoe UI", system-ui, sans-serif; font-size: 12px; font-weight: 500; }.title { fill: #1a232e; font-family: -apple-system, BlinkMacSystemFont, "Segoe UI", system-ui, sans-serif; font-size: 14px; font-weight: 600; }.deploy-marker { stroke: #aab2bd; stroke-width: 1; stroke-dasharray: 5,4; }.deploy-label { fill: #6b7480; font-family: -apple-system, BlinkMacSystemFont, "Segoe UI", system-ui, sans-serif; font-size: 11px; font-style: italic; }.curve { fill: none; stroke-width: 2.25; stroke-linejoin: round; stroke-linecap: round; }.marker { stroke: #fff; stroke-width: 1; }.legend-text { fill: #2d3540; font-family: -apple-system, BlinkMacSystemFont, "Segoe UI", system-ui, sans-serif; font-size: 12px; font-weight: 500; }</style><text class="title" x="70" y="16">jar: recall by FP level</text><rect class="frame" x="70" y="24" width="1102" height="236"/><line class="grid" x1="70" y1="260.0" x2="1172" y2="260.0"/><text class="axis-label" x="60" y="264.0" text-anchor="end">0%</text><line class="grid" x1="70" y1="201.0" x2="1172" y2="201.0"/><text class="axis-label" x="60" y="205.0" text-anchor="end">25%</text><line class="grid" x1="70" y1="142.0" x2="1172" y2="142.0"/><text class="axis-label" x="60" y="146.0" text-anchor="end">50%</text><line class="grid" x1="70" y1="83.0" x2="1172" y2="83.0"/><text class="axis-label" x="60" y="87.0" text-anchor="end">75%</text><line class="grid" x1="70" y1="24.0" x2="1172" y2="24.0"/><text class="axis-label" x="60" y="28.0" text-anchor="end">100%</text><line class="deploy-marker" x1="493.8" y1="24" x2="493.8" y2="260"/><text class="deploy-label" x="497.8" y="36" text-anchor="start">deploy L50</text><line class="tick" x1="70.0" y1="260" x2="70.0" y2="264"/><text class="x-label" x="70.0" y="278" text-anchor="middle">L0</text><line class="tick" x1="112.4" y1="260" x2="112.4" y2="264"/><text class="x-label" x="112.4" y="278" text-anchor="middle">L1</text><line class="tick" x1="154.8" y1="260" x2="154.8" y2="264"/><text class="x-label" x="154.8" y="278" text-anchor="middle">L2</text><line class="tick" x1="197.2" y1="260" x2="197.2" y2="264"/><text class="x-label" x="197.2" y="278" text-anchor="middle">L3</text><line class="tick" x1="239.5" y1="260" x2="239.5" y2="264"/><text class="x-label" x="239.5" y="278" text-anchor="middle">L4</text><line class="tick" x1="281.9" y1="260" x2="281.9" y2="264"/><text class="x-label" x="281.9" y="278" text-anchor="middle">L5</text><line class="tick" x1="324.3" y1="260" x2="324.3" y2="264"/><text class="x-label" x="324.3" y="278" text-anchor="middle">L10</text><line class="tick" x1="366.7" y1="260" x2="366.7" y2="264"/><text class="x-label" x="366.7" y="278" text-anchor="middle">L20</text><line class="tick" x1="409.1" y1="260" x2="409.1" y2="264"/><text class="x-label" x="409.1" y="278" text-anchor="middle">L30</text><line class="tick" x1="451.5" y1="260" x2="451.5" y2="264"/><text class="x-label" x="451.5" y="278" text-anchor="middle">L40</text><line class="tick" x1="493.8" y1="260" x2="493.8" y2="264"/><text class="x-label" x="493.8" y="278" text-anchor="middle">L50</text><line class="tick" x1="536.2" y1="260" x2="536.2" y2="264"/><text class="x-label" x="536.2" y="278" text-anchor="middle">L60</text><line class="tick" x1="578.6" y1="260" x2="578.6" y2="264"/><text class="x-label" x="578.6" y="278" text-anchor="middle">L70</text><line class="tick" x1="621.0" y1="260" x2="621.0" y2="264"/><text class="x-label" x="621.0" y="278" text-anchor="middle">L80</text><line class="tick" x1="663.4" y1="260" x2="663.4" y2="264"/><text class="x-label" x="663.4" y="278" text-anchor="middle">L90</text><line class="tick" x1="705.8" y1="260" x2="705.8" y2="264"/><text class="x-label" x="705.8" y="278" text-anchor="middle">L100</text><line class="tick" x1="748.2" y1="260" x2="748.2" y2="264"/><text class="x-label" x="748.2" y="278" text-anchor="middle">L200</text><line class="tick" x1="790.5" y1="260" x2="790.5" y2="264"/><text class="x-label" x="790.5" y="278" text-anchor="middle">L300</text><line class="tick" x1="832.9" y1="260" x2="832.9" y2="264"/><text class="x-label" x="832.9" y="278" text-anchor="middle">L500</text><line class="tick" x1="875.3" y1="260" x2="875.3" y2="264"/><text class="x-label" x="875.3" y="278" text-anchor="middle">L1000</text><line class="tick" x1="917.7" y1="260" x2="917.7" y2="264"/><text class="x-label" x="917.7" y="278" text-anchor="middle">L2000</text><line class="tick" x1="960.1" y1="260" x2="960.1" y2="264"/><text class="x-label" x="960.1" y="278" text-anchor="middle">L5000</text><line class="tick" x1="1002.5" y1="260" x2="1002.5" y2="264"/><text class="x-label" x="1002.5" y="278" text-anchor="middle">L7500</text><line class="tick" x1="1044.8" y1="260" x2="1044.8" y2="264"/><text class="x-label" x="1044.8" y="278" text-anchor="middle">L10000</text><line class="tick" x1="1087.2" y1="260" x2="1087.2" y2="264"/><text class="x-label" x="1087.2" y="278" text-anchor="middle">L15000</text><line class="tick" x1="1129.6" y1="260" x2="1129.6" y2="264"/><text class="x-label" x="1129.6" y="278" text-anchor="middle">L20000</text><line class="tick" x1="1172.0" y1="260" x2="1172.0" y2="264"/><text class="x-label" x="1172.0" y="278" text-anchor="middle">L25000</text><text class="axis-title" x="621.0" y="304" text-anchor="middle">Severity level (FP per 100M benigns)</text><path class="curve" d="M112.4,177.3 L154.8,177.3 L197.2,177.3 L239.5,177.3 L281.9,177.3 L324.3,172.1 L366.7,146.2 L409.1,146.2 L451.5,140.4 L493.8,121.7 L536.2,116.0 L578.6,82.2 L621.0,73.4 L663.4,70.3 L705.8,65.1 L748.2,65.1 L790.5,65.1 L832.9,65.1 L875.3,65.1 L917.7,65.1 L960.1,65.1 L1002.5,65.1 L1044.8,65.1 L1087.2,65.1 L1129.6,65.1 L1172.0,65.1" stroke="#888"/><circle class="marker" cx="112.4" cy="177.3" r="3.5" fill="#888"/><circle class="marker" cx="154.8" cy="177.3" r="3.5" fill="#888"/><circle class="marker" cx="197.2" cy="177.3" r="3.5" fill="#888"/><circle class="marker" cx="239.5" cy="177.3" r="3.5" fill="#888"/><circle class="marker" cx="281.9" cy="177.3" r="3.5" fill="#888"/><circle class="marker" cx="324.3" cy="172.1" r="3.5" fill="#888"/><circle class="marker" cx="366.7" cy="146.2" r="3.5" fill="#888"/><circle class="marker" cx="409.1" cy="146.2" r="3.5" fill="#888"/><circle class="marker" cx="451.5" cy="140.4" r="3.5" fill="#888"/><circle class="marker" cx="493.8" cy="121.7" r="3.5" fill="#888"/><circle class="marker" cx="536.2" cy="116.0" r="3.5" fill="#888"/><circle class="marker" cx="578.6" cy="82.2" r="3.5" fill="#888"/><circle class="marker" cx="621.0" cy="73.4" r="3.5" fill="#888"/><circle class="marker" cx="663.4" cy="70.3" r="3.5" fill="#888"/><circle class="marker" cx="705.8" cy="65.1" r="3.5" fill="#888"/><circle class="marker" cx="748.2" cy="65.1" r="3.5" fill="#888"/><circle class="marker" cx="790.5" cy="65.1" r="3.5" fill="#888"/><circle class="marker" cx="832.9" cy="65.1" r="3.5" fill="#888"/><circle class="marker" cx="875.3" cy="65.1" r="3.5" fill="#888"/><circle class="marker" cx="917.7" cy="65.1" r="3.5" fill="#888"/><circle class="marker" cx="960.1" cy="65.1" r="3.5" fill="#888"/><circle class="marker" cx="1002.5" cy="65.1" r="3.5" fill="#888"/><circle class="marker" cx="1044.8" cy="65.1" r="3.5" fill="#888"/><circle class="marker" cx="1087.2" cy="65.1" r="3.5" fill="#888"/><circle class="marker" cx="1129.6" cy="65.1" r="3.5" fill="#888"/><circle class="marker" cx="1172.0" cy="65.1" r="3.5" fill="#888"/><path class="curve" d="M112.4,131.6 L154.8,131.6 L197.2,131.6 L239.5,131.6 L281.9,131.6 L324.3,126.4 L366.7,120.2 L409.1,77.5 L451.5,63.5 L493.8,63.5 L536.2,63.5 L578.6,58.8 L621.0,55.7 L663.4,49.5 L705.8,46.9 L748.2,46.9 L790.5,46.9 L832.9,46.9 L875.3,46.9 L917.7,46.9 L960.1,46.9 L1002.5,46.9 L1044.8,46.9 L1087.2,46.9 L1129.6,46.9 L1172.0,46.9" stroke="#3a7"/><circle class="marker" cx="112.4" cy="131.6" r="3.5" fill="#3a7"/><circle class="marker" cx="154.8" cy="131.6" r="3.5" fill="#3a7"/><circle class="marker" cx="197.2" cy="131.6" r="3.5" fill="#3a7"/><circle class="marker" cx="239.5" cy="131.6" r="3.5" fill="#3a7"/><circle class="marker" cx="281.9" cy="131.6" r="3.5" fill="#3a7"/><circle class="marker" cx="324.3" cy="126.4" r="3.5" fill="#3a7"/><circle class="marker" cx="366.7" cy="120.2" r="3.5" fill="#3a7"/><circle class="marker" cx="409.1" cy="77.5" r="3.5" fill="#3a7"/><circle class="marker" cx="451.5" cy="63.5" r="3.5" fill="#3a7"/><circle class="marker" cx="493.8" cy="63.5" r="3.5" fill="#3a7"/><circle class="marker" cx="536.2" cy="63.5" r="3.5" fill="#3a7"/><circle class="marker" cx="578.6" cy="58.8" r="3.5" fill="#3a7"/><circle class="marker" cx="621.0" cy="55.7" r="3.5" fill="#3a7"/><circle class="marker" cx="663.4" cy="49.5" r="3.5" fill="#3a7"/><circle class="marker" cx="705.8" cy="46.9" r="3.5" fill="#3a7"/><circle class="marker" cx="748.2" cy="46.9" r="3.5" fill="#3a7"/><circle class="marker" cx="790.5" cy="46.9" r="3.5" fill="#3a7"/><circle class="marker" cx="832.9" cy="46.9" r="3.5" fill="#3a7"/><circle class="marker" cx="875.3" cy="46.9" r="3.5" fill="#3a7"/><circle class="marker" cx="917.7" cy="46.9" r="3.5" fill="#3a7"/><circle class="marker" cx="960.1" cy="46.9" r="3.5" fill="#3a7"/><circle class="marker" cx="1002.5" cy="46.9" r="3.5" fill="#3a7"/><circle class="marker" cx="1044.8" cy="46.9" r="3.5" fill="#3a7"/><circle class="marker" cx="1087.2" cy="46.9" r="3.5" fill="#3a7"/><circle class="marker" cx="1129.6" cy="46.9" r="3.5" fill="#3a7"/><circle class="marker" cx="1172.0" cy="46.9" r="3.5" fill="#3a7"/><path class="curve" d="M112.4,229.9 L154.8,229.9 L197.2,229.9 L239.5,229.9 L281.9,229.9 L324.3,229.9 L366.7,201.3 L409.1,83.3 L451.5,59.3 L493.8,56.2 L536.2,50.5 L578.6,49.0 L621.0,47.9 L663.4,47.4 L705.8,44.3 L748.2,42.7 L790.5,42.7 L832.9,42.7 L875.3,42.7 L917.7,42.7 L960.1,42.7 L1002.5,42.7 L1044.8,42.7 L1087.2,42.7 L1129.6,42.7 L1172.0,42.7" stroke="#06c"/><circle class="marker" cx="112.4" cy="229.9" r="3.5" fill="#06c"/><circle class="marker" cx="154.8" cy="229.9" r="3.5" fill="#06c"/><circle class="marker" cx="197.2" cy="229.9" r="3.5" fill="#06c"/><circle class="marker" cx="239.5" cy="229.9" r="3.5" fill="#06c"/><circle class="marker" cx="281.9" cy="229.9" r="3.5" fill="#06c"/><circle class="marker" cx="324.3" cy="229.9" r="3.5" fill="#06c"/><circle class="marker" cx="366.7" cy="201.3" r="3.5" fill="#06c"/><circle class="marker" cx="409.1" cy="83.3" r="3.5" fill="#06c"/><circle class="marker" cx="451.5" cy="59.3" r="3.5" fill="#06c"/><circle class="marker" cx="493.8" cy="56.2" r="3.5" fill="#06c"/><circle class="marker" cx="536.2" cy="50.5" r="3.5" fill="#06c"/><circle class="marker" cx="578.6" cy="49.0" r="3.5" fill="#06c"/><circle class="marker" cx="621.0" cy="47.9" r="3.5" fill="#06c"/><circle class="marker" cx="663.4" cy="47.4" r="3.5" fill="#06c"/><circle class="marker" cx="705.8" cy="44.3" r="3.5" fill="#06c"/><circle class="marker" cx="748.2" cy="42.7" r="3.5" fill="#06c"/><circle class="marker" cx="790.5" cy="42.7" r="3.5" fill="#06c"/><circle class="marker" cx="832.9" cy="42.7" r="3.5" fill="#06c"/><circle class="marker" cx="875.3" cy="42.7" r="3.5" fill="#06c"/><circle class="marker" cx="917.7" cy="42.7" r="3.5" fill="#06c"/><circle class="marker" cx="960.1" cy="42.7" r="3.5" fill="#06c"/><circle class="marker" cx="1002.5" cy="42.7" r="3.5" fill="#06c"/><circle class="marker" cx="1044.8" cy="42.7" r="3.5" fill="#06c"/><circle class="marker" cx="1087.2" cy="42.7" r="3.5" fill="#06c"/><circle class="marker" cx="1129.6" cy="42.7" r="3.5" fill="#06c"/><circle class="marker" cx="1172.0" cy="42.7" r="3.5" fill="#06c"/><line x1="1088.0" y1="12.0" x2="1106.0" y2="12.0" stroke="#06c" stroke-width="2.25" stroke-linecap="round"/><circle cx="1097.0" cy="12.0" r="3.5" fill="#06c" stroke="#fff" stroke-width="1"/><text class="legend-text" x="1112.0" y="16.0">ensemble</text><line x1="976.0" y1="12.0" x2="994.0" y2="12.0" stroke="#3a7" stroke-width="2.25" stroke-linecap="round"/><circle cx="985.0" cy="12.0" r="3.5" fill="#3a7" stroke="#fff" stroke-width="1"/><text class="legend-text" x="1000.0" y="16.0">specialist</text><line x1="885.0" y1="12.0" x2="903.0" y2="12.0" stroke="#888" stroke-width="2.25" stroke-linecap="round"/><circle cx="894.0" cy="12.0" r="3.5" fill="#888" stroke="#fff" stroke-width="1"/><text class="legend-text" x="909.0" y="16.0">general</text></svg>