<svg xmlns="http://www.w3.org/2000/svg" viewBox="0 0 1200 320" width="1200" height="320" preserveAspectRatio="xMidYMid meet" role="img" aria-label="javascript: recall by FP level"><style>svg { background: #fdfdfd; }.frame { fill: #fff; stroke: #d8dde3; stroke-width: 1; }.grid { stroke: #eef0f3; stroke-width: 1; }.tick { stroke: #b8bfc7; stroke-width: 1; }.axis-label { fill: #5f6b78; font-family: -apple-system, BlinkMacSystemFont, "Segoe UI", system-ui, sans-serif; font-size: 12px; }.x-label { fill: #5f6b78; font-family: -apple-system, BlinkMacSystemFont, "Segoe UI", system-ui, sans-serif; font-size: 11px; }.axis-title { fill: #2d3540; font-family: -apple-system, BlinkMacSystemFont, "Segoe UI", system-ui, sans-serif; font-size: 12px; font-weight: 500; }.title { fill: #1a232e; font-family: -apple-system, BlinkMacSystemFont, "Segoe UI", system-ui, sans-serif; font-size: 14px; font-weight: 600; }.deploy-marker { stroke: #aab2bd; stroke-width: 1; stroke-dasharray: 5,4; }.deploy-label { fill: #6b7480; font-family: -apple-system, BlinkMacSystemFont, "Segoe UI", system-ui, sans-serif; font-size: 11px; font-style: italic; }.curve { fill: none; stroke-width: 2.25; stroke-linejoin: round; stroke-linecap: round; }.marker { stroke: #fff; stroke-width: 1; }.legend-text { fill: #2d3540; font-family: -apple-system, BlinkMacSystemFont, "Segoe UI", system-ui, sans-serif; font-size: 12px; font-weight: 500; }</style><text class="title" x="70" y="16">javascript: recall by FP level</text><rect class="frame" x="70" y="24" width="1102" height="236"/><line class="grid" x1="70" y1="260.0" x2="1172" y2="260.0"/><text class="axis-label" x="60" y="264.0" text-anchor="end">0%</text><line class="grid" x1="70" y1="201.0" x2="1172" y2="201.0"/><text class="axis-label" x="60" y="205.0" text-anchor="end">25%</text><line class="grid" x1="70" y1="142.0" x2="1172" y2="142.0"/><text class="axis-label" x="60" y="146.0" text-anchor="end">50%</text><line class="grid" x1="70" y1="83.0" x2="1172" y2="83.0"/><text class="axis-label" x="60" y="87.0" text-anchor="end">75%</text><line class="grid" x1="70" y1="24.0" x2="1172" y2="24.0"/><text class="axis-label" x="60" y="28.0" text-anchor="end">100%</text><line class="deploy-marker" x1="311.9" y1="24" x2="311.9" y2="260"/><text class="deploy-label" x="315.9" y="36" text-anchor="start">deploy L25</text><line class="tick" x1="70.0" y1="260" x2="70.0" y2="264"/><text class="x-label" x="70.0" y="278" text-anchor="middle">L0</text><line class="tick" x1="96.9" y1="260" x2="96.9" y2="264"/><text class="x-label" x="96.9" y="278" text-anchor="middle">L1</text><line class="tick" x1="123.8" y1="260" x2="123.8" y2="264"/><text class="x-label" x="123.8" y="278" text-anchor="middle">L2</text><line class="tick" x1="150.6" y1="260" x2="150.6" y2="264"/><text class="x-label" x="150.6" y="278" text-anchor="middle">L3</text><line class="tick" x1="177.5" y1="260" x2="177.5" y2="264"/><text class="x-label" x="177.5" y="278" text-anchor="middle">L4</text><line class="tick" x1="204.4" y1="260" x2="204.4" y2="264"/><text class="x-label" x="204.4" y="278" text-anchor="middle">L5</text><line class="tick" x1="231.3" y1="260" x2="231.3" y2="264"/><text class="x-label" x="231.3" y="278" text-anchor="middle">L10</text><line class="tick" x1="258.1" y1="260" x2="258.1" y2="264"/><text class="x-label" x="258.1" y="278" text-anchor="middle">L15</text><line class="tick" x1="285.0" y1="260" x2="285.0" y2="264"/><text class="x-label" x="285.0" y="278" text-anchor="middle">L20</text><line class="tick" x1="311.9" y1="260" x2="311.9" y2="264"/><text class="x-label" x="311.9" y="278" text-anchor="middle">L25</text><line class="tick" x1="338.8" y1="260" x2="338.8" y2="264"/><text class="x-label" x="338.8" y="278" text-anchor="middle">L30</text><line class="tick" x1="365.7" y1="260" x2="365.7" y2="264"/><text class="x-label" x="365.7" y="278" text-anchor="middle">L40</text><line class="tick" x1="392.5" y1="260" x2="392.5" y2="264"/><text class="x-label" x="392.5" y="278" text-anchor="middle">L50</text><line class="tick" x1="419.4" y1="260" x2="419.4" y2="264"/><text class="x-label" x="419.4" y="278" text-anchor="middle">L60</text><line class="tick" x1="446.3" y1="260" x2="446.3" y2="264"/><text class="x-label" x="446.3" y="278" text-anchor="middle">L70</text><line class="tick" x1="473.2" y1="260" x2="473.2" y2="264"/><text class="x-label" x="473.2" y="278" text-anchor="middle">L80</text><line class="tick" x1="500.0" y1="260" x2="500.0" y2="264"/><text class="x-label" x="500.0" y="278" text-anchor="middle">L90</text><line class="tick" x1="526.9" y1="260" x2="526.9" y2="264"/><text class="x-label" x="526.9" y="278" text-anchor="middle">L100</text><line class="tick" x1="553.8" y1="260" x2="553.8" y2="264"/><text class="x-label" x="553.8" y="278" text-anchor="middle">L125</text><line class="tick" x1="580.7" y1="260" x2="580.7" y2="264"/><text class="x-label" x="580.7" y="278" text-anchor="middle">L150</text><line class="tick" x1="607.6" y1="260" x2="607.6" y2="264"/><text class="x-label" x="607.6" y="278" text-anchor="middle">L175</text><line class="tick" x1="634.4" y1="260" x2="634.4" y2="264"/><text class="x-label" x="634.4" y="278" text-anchor="middle">L200</text><line class="tick" x1="661.3" y1="260" x2="661.3" y2="264"/><text class="x-label" x="661.3" y="278" text-anchor="middle">L250</text><line class="tick" x1="688.2" y1="260" x2="688.2" y2="264"/><text class="x-label" x="688.2" y="278" text-anchor="middle">L300</text><line class="tick" x1="715.1" y1="260" x2="715.1" y2="264"/><text class="x-label" x="715.1" y="278" text-anchor="middle">L500</text><line class="tick" x1="742.0" y1="260" x2="742.0" y2="264"/><text class="x-label" x="742.0" y="278" text-anchor="middle">L750</text><line class="tick" x1="768.8" y1="260" x2="768.8" y2="264"/><text class="x-label" x="768.8" y="278" text-anchor="middle">L1000</text><line class="tick" x1="795.7" y1="260" x2="795.7" y2="264"/><text class="x-label" x="795.7" y="278" text-anchor="middle">L1250</text><line class="tick" x1="822.6" y1="260" x2="822.6" y2="264"/><text class="x-label" x="822.6" y="278" text-anchor="middle">L1500</text><line class="tick" x1="849.5" y1="260" x2="849.5" y2="264"/><text class="x-label" x="849.5" y="278" text-anchor="middle">L1750</text><line class="tick" x1="876.3" y1="260" x2="876.3" y2="264"/><text class="x-label" x="876.3" y="278" text-anchor="middle">L2000</text><line class="tick" x1="903.2" y1="260" x2="903.2" y2="264"/><text class="x-label" x="903.2" y="278" text-anchor="middle">L2250</text><line class="tick" x1="930.1" y1="260" x2="930.1" y2="264"/><text class="x-label" x="930.1" y="278" text-anchor="middle">L2500</text><line class="tick" x1="957.0" y1="260" x2="957.0" y2="264"/><text class="x-label" x="957.0" y="278" text-anchor="middle">L3000</text><line class="tick" x1="983.9" y1="260" x2="983.9" y2="264"/><text class="x-label" x="983.9" y="278" text-anchor="middle">L4000</text><line class="tick" x1="1010.7" y1="260" x2="1010.7" y2="264"/><text class="x-label" x="1010.7" y="278" text-anchor="middle">L5000</text><line class="tick" x1="1037.6" y1="260" x2="1037.6" y2="264"/><text class="x-label" x="1037.6" y="278" text-anchor="middle">L6000</text><line class="tick" x1="1064.5" y1="260" x2="1064.5" y2="264"/><text class="x-label" x="1064.5" y="278" text-anchor="middle">L7500</text><line class="tick" x1="1091.4" y1="260" x2="1091.4" y2="264"/><text class="x-label" x="1091.4" y="278" text-anchor="middle">L10000</text><line class="tick" x1="1118.2" y1="260" x2="1118.2" y2="264"/><text class="x-label" x="1118.2" y="278" text-anchor="middle">L15000</text><line class="tick" x1="1145.1" y1="260" x2="1145.1" y2="264"/><text class="x-label" x="1145.1" y="278" text-anchor="middle">L20000</text><line class="tick" x1="1172.0" y1="260" x2="1172.0" y2="264"/><text class="x-label" x="1172.0" y="278" text-anchor="middle">L25000</text><text class="axis-title" x="621.0" y="304" text-anchor="middle">Severity level (FP per 100M benigns)</text><path class="curve" d="M96.9,201.3 L123.8,201.1 L150.6,201.0 L177.5,201.0 L204.4,200.9 L231.3,200.7 L258.1,200.5 L285.0,200.4 L311.9,200.1 L338.8,199.9 L365.7,197.9 L392.5,197.3 L419.4,196.7 L446.3,196.2 L473.2,195.6 L500.0,194.9 L526.9,194.1 L553.8,192.1 L580.7,190.7 L607.6,188.9 L634.4,186.1 L661.3,182.6 L688.2,178.7 L715.1,163.6 L742.0,158.6 L768.8,156.6 L795.7,153.3 L822.6,148.8 L849.5,146.3 L876.3,144.1 L903.2,142.6 L930.1,142.4 L957.0,141.2 L983.9,133.6 L1010.7,131.6 L1037.6,130.8 L1064.5,129.9 L1091.4,125.5 L1118.2,119.4 L1145.1,115.6 L1172.0,113.6" stroke="#888"/><circle class="marker" cx="96.9" cy="201.3" r="3.5" fill="#888"/><circle class="marker" cx="123.8" cy="201.1" r="3.5" fill="#888"/><circle class="marker" cx="150.6" cy="201.0" r="3.5" fill="#888"/><circle class="marker" cx="177.5" cy="201.0" r="3.5" fill="#888"/><circle class="marker" cx="204.4" cy="200.9" r="3.5" fill="#888"/><circle class="marker" cx="231.3" cy="200.7" r="3.5" fill="#888"/><circle class="marker" cx="258.1" cy="200.5" r="3.5" fill="#888"/><circle class="marker" cx="285.0" cy="200.4" r="3.5" fill="#888"/><circle class="marker" cx="311.9" cy="200.1" r="3.5" fill="#888"/><circle class="marker" cx="338.8" cy="199.9" r="3.5" fill="#888"/><circle class="marker" cx="365.7" cy="197.9" r="3.5" fill="#888"/><circle class="marker" cx="392.5" cy="197.3" r="3.5" fill="#888"/><circle class="marker" cx="419.4" cy="196.7" r="3.5" fill="#888"/><circle class="marker" cx="446.3" cy="196.2" r="3.5" fill="#888"/><circle class="marker" cx="473.2" cy="195.6" r="3.5" fill="#888"/><circle class="marker" cx="500.0" cy="194.9" r="3.5" fill="#888"/><circle class="marker" cx="526.9" cy="194.1" r="3.5" fill="#888"/><circle class="marker" cx="553.8" cy="192.1" r="3.5" fill="#888"/><circle class="marker" cx="580.7" cy="190.7" r="3.5" fill="#888"/><circle class="marker" cx="607.6" cy="188.9" r="3.5" fill="#888"/><circle class="marker" cx="634.4" cy="186.1" r="3.5" fill="#888"/><circle class="marker" cx="661.3" cy="182.6" r="3.5" fill="#888"/><circle class="marker" cx="688.2" cy="178.7" r="3.5" fill="#888"/><circle class="marker" cx="715.1" cy="163.6" r="3.5" fill="#888"/><circle class="marker" cx="742.0" cy="158.6" r="3.5" fill="#888"/><circle class="marker" cx="768.8" cy="156.6" r="3.5" fill="#888"/><circle class="marker" cx="795.7" cy="153.3" r="3.5" fill="#888"/><circle class="marker" cx="822.6" cy="148.8" r="3.5" fill="#888"/><circle class="marker" cx="849.5" cy="146.3" r="3.5" fill="#888"/><circle class="marker" cx="876.3" cy="144.1" r="3.5" fill="#888"/><circle class="marker" cx="903.2" cy="142.6" r="3.5" fill="#888"/><circle class="marker" cx="930.1" cy="142.4" r="3.5" fill="#888"/><circle class="marker" cx="957.0" cy="141.2" r="3.5" fill="#888"/><circle class="marker" cx="983.9" cy="133.6" r="3.5" fill="#888"/><circle class="marker" cx="1010.7" cy="131.6" r="3.5" fill="#888"/><circle class="marker" cx="1037.6" cy="130.8" r="3.5" fill="#888"/><circle class="marker" cx="1064.5" cy="129.9" r="3.5" fill="#888"/><circle class="marker" cx="1091.4" cy="125.5" r="3.5" fill="#888"/><circle class="marker" cx="1118.2" cy="119.4" r="3.5" fill="#888"/><circle class="marker" cx="1145.1" cy="115.6" r="3.5" fill="#888"/><circle class="marker" cx="1172.0" cy="113.6" r="3.5" fill="#888"/><path class="curve" d="M96.9,144.3 L123.8,144.3 L150.6,144.3 L177.5,144.3 L204.4,144.3 L231.3,144.2 L258.1,144.2 L285.0,144.1 L311.9,144.0 L338.8,143.9 L365.7,143.7 L392.5,143.6 L419.4,143.5 L446.3,143.4 L473.2,143.4 L500.0,143.2 L526.9,143.1 L553.8,142.8 L580.7,142.4 L607.6,142.1 L634.4,141.6 L661.3,140.8 L688.2,140.0 L715.1,137.9 L742.0,136.9 L768.8,136.5 L795.7,134.8 L822.6,132.9 L849.5,131.7 L876.3,131.3 L903.2,130.7 L930.1,129.1 L957.0,127.1 L983.9,124.4 L1010.7,115.4 L1037.6,112.2 L1064.5,109.0 L1091.4,104.6 L1118.2,97.7 L1145.1,93.9 L1172.0,90.9" stroke="#3a7"/><circle class="marker" cx="96.9" cy="144.3" r="3.5" fill="#3a7"/><circle class="marker" cx="123.8" cy="144.3" r="3.5" fill="#3a7"/><circle class="marker" cx="150.6" cy="144.3" r="3.5" fill="#3a7"/><circle class="marker" cx="177.5" cy="144.3" r="3.5" fill="#3a7"/><circle class="marker" cx="204.4" cy="144.3" r="3.5" fill="#3a7"/><circle class="marker" cx="231.3" cy="144.2" r="3.5" fill="#3a7"/><circle class="marker" cx="258.1" cy="144.2" r="3.5" fill="#3a7"/><circle class="marker" cx="285.0" cy="144.1" r="3.5" fill="#3a7"/><circle class="marker" cx="311.9" cy="144.0" r="3.5" fill="#3a7"/><circle class="marker" cx="338.8" cy="143.9" r="3.5" fill="#3a7"/><circle class="marker" cx="365.7" cy="143.7" r="3.5" fill="#3a7"/><circle class="marker" cx="392.5" cy="143.6" r="3.5" fill="#3a7"/><circle class="marker" cx="419.4" cy="143.5" r="3.5" fill="#3a7"/><circle class="marker" cx="446.3" cy="143.4" r="3.5" fill="#3a7"/><circle class="marker" cx="473.2" cy="143.4" r="3.5" fill="#3a7"/><circle class="marker" cx="500.0" cy="143.2" r="3.5" fill="#3a7"/><circle class="marker" cx="526.9" cy="143.1" r="3.5" fill="#3a7"/><circle class="marker" cx="553.8" cy="142.8" r="3.5" fill="#3a7"/><circle class="marker" cx="580.7" cy="142.4" r="3.5" fill="#3a7"/><circle class="marker" cx="607.6" cy="142.1" r="3.5" fill="#3a7"/><circle class="marker" cx="634.4" cy="141.6" r="3.5" fill="#3a7"/><circle class="marker" cx="661.3" cy="140.8" r="3.5" fill="#3a7"/><circle class="marker" cx="688.2" cy="140.0" r="3.5" fill="#3a7"/><circle class="marker" cx="715.1" cy="137.9" r="3.5" fill="#3a7"/><circle class="marker" cx="742.0" cy="136.9" r="3.5" fill="#3a7"/><circle class="marker" cx="768.8" cy="136.5" r="3.5" fill="#3a7"/><circle class="marker" cx="795.7" cy="134.8" r="3.5" fill="#3a7"/><circle class="marker" cx="822.6" cy="132.9" r="3.5" fill="#3a7"/><circle class="marker" cx="849.5" cy="131.7" r="3.5" fill="#3a7"/><circle class="marker" cx="876.3" cy="131.3" r="3.5" fill="#3a7"/><circle class="marker" cx="903.2" cy="130.7" r="3.5" fill="#3a7"/><circle class="marker" cx="930.1" cy="129.1" r="3.5" fill="#3a7"/><circle class="marker" cx="957.0" cy="127.1" r="3.5" fill="#3a7"/><circle class="marker" cx="983.9" cy="124.4" r="3.5" fill="#3a7"/><circle class="marker" cx="1010.7" cy="115.4" r="3.5" fill="#3a7"/><circle class="marker" cx="1037.6" cy="112.2" r="3.5" fill="#3a7"/><circle class="marker" cx="1064.5" cy="109.0" r="3.5" fill="#3a7"/><circle class="marker" cx="1091.4" cy="104.6" r="3.5" fill="#3a7"/><circle class="marker" cx="1118.2" cy="97.7" r="3.5" fill="#3a7"/><circle class="marker" cx="1145.1" cy="93.9" r="3.5" fill="#3a7"/><circle class="marker" cx="1172.0" cy="90.9" r="3.5" fill="#3a7"/><path class="curve" d="M96.9,142.7 L123.8,142.7 L150.6,142.7 L177.5,142.7 L204.4,142.7 L231.3,142.7 L258.1,142.7 L285.0,142.7 L311.9,142.7 L338.8,142.7 L365.7,142.7 L392.5,142.7 L419.4,142.7 L446.3,142.7 L473.2,142.7 L500.0,142.7 L526.9,142.7 L553.8,142.7 L580.7,142.7 L607.6,142.7 L634.4,142.7 L661.3,142.7 L688.2,142.7 L715.1,142.3 L742.0,141.0 L768.8,139.3 L795.7,134.0 L822.6,133.6 L849.5,129.1 L876.3,129.1 L903.2,129.1 L930.1,129.1 L957.0,127.3 L983.9,124.1 L1010.7,120.4 L1037.6,112.6 L1064.5,111.2 L1091.4,107.4 L1118.2,103.1 L1145.1,95.2 L1172.0,92.8" stroke="#06c"/><circle class="marker" cx="96.9" cy="142.7" r="3.5" fill="#06c"/><circle class="marker" cx="123.8" cy="142.7" r="3.5" fill="#06c"/><circle class="marker" cx="150.6" cy="142.7" r="3.5" fill="#06c"/><circle class="marker" cx="177.5" cy="142.7" r="3.5" fill="#06c"/><circle class="marker" cx="204.4" cy="142.7" r="3.5" fill="#06c"/><circle class="marker" cx="231.3" cy="142.7" r="3.5" fill="#06c"/><circle class="marker" cx="258.1" cy="142.7" r="3.5" fill="#06c"/><circle class="marker" cx="285.0" cy="142.7" r="3.5" fill="#06c"/><circle class="marker" cx="311.9" cy="142.7" r="3.5" fill="#06c"/><circle class="marker" cx="338.8" cy="142.7" r="3.5" fill="#06c"/><circle class="marker" cx="365.7" cy="142.7" r="3.5" fill="#06c"/><circle class="marker" cx="392.5" cy="142.7" r="3.5" fill="#06c"/><circle class="marker" cx="419.4" cy="142.7" r="3.5" fill="#06c"/><circle class="marker" cx="446.3" cy="142.7" r="3.5" fill="#06c"/><circle class="marker" cx="473.2" cy="142.7" r="3.5" fill="#06c"/><circle class="marker" cx="500.0" cy="142.7" r="3.5" fill="#06c"/><circle class="marker" cx="526.9" cy="142.7" r="3.5" fill="#06c"/><circle class="marker" cx="553.8" cy="142.7" r="3.5" fill="#06c"/><circle class="marker" cx="580.7" cy="142.7" r="3.5" fill="#06c"/><circle class="marker" cx="607.6" cy="142.7" r="3.5" fill="#06c"/><circle class="marker" cx="634.4" cy="142.7" r="3.5" fill="#06c"/><circle class="marker" cx="661.3" cy="142.7" r="3.5" fill="#06c"/><circle class="marker" cx="688.2" cy="142.7" r="3.5" fill="#06c"/><circle class="marker" cx="715.1" cy="142.3" r="3.5" fill="#06c"/><circle class="marker" cx="742.0" cy="141.0" r="3.5" fill="#06c"/><circle class="marker" cx="768.8" cy="139.3" r="3.5" fill="#06c"/><circle class="marker" cx="795.7" cy="134.0" r="3.5" fill="#06c"/><circle class="marker" cx="822.6" cy="133.6" r="3.5" fill="#06c"/><circle class="marker" cx="849.5" cy="129.1" r="3.5" fill="#06c"/><circle class="marker" cx="876.3" cy="129.1" r="3.5" fill="#06c"/><circle class="marker" cx="903.2" cy="129.1" r="3.5" fill="#06c"/><circle class="marker" cx="930.1" cy="129.1" r="3.5" fill="#06c"/><circle class="marker" cx="957.0" cy="127.3" r="3.5" fill="#06c"/><circle class="marker" cx="983.9" cy="124.1" r="3.5" fill="#06c"/><circle class="marker" cx="1010.7" cy="120.4" r="3.5" fill="#06c"/><circle class="marker" cx="1037.6" cy="112.6" r="3.5" fill="#06c"/><circle class="marker" cx="1064.5" cy="111.2" r="3.5" fill="#06c"/><circle class="marker" cx="1091.4" cy="107.4" r="3.5" fill="#06c"/><circle class="marker" cx="1118.2" cy="103.1" r="3.5" fill="#06c"/><circle class="marker" cx="1145.1" cy="95.2" r="3.5" fill="#06c"/><circle class="marker" cx="1172.0" cy="92.8" r="3.5" fill="#06c"/><line x1="1088.0" y1="12.0" x2="1106.0" y2="12.0" stroke="#06c" stroke-width="2.25" stroke-linecap="round"/><circle cx="1097.0" cy="12.0" r="3.5" fill="#06c" stroke="#fff" stroke-width="1"/><text class="legend-text" x="1112.0" y="16.0">ensemble</text><line x1="976.0" y1="12.0" x2="994.0" y2="12.0" stroke="#3a7" stroke-width="2.25" stroke-linecap="round"/><circle cx="985.0" cy="12.0" r="3.5" fill="#3a7" stroke="#fff" stroke-width="1"/><text class="legend-text" x="1000.0" y="16.0">specialist</text><line x1="885.0" y1="12.0" x2="903.0" y2="12.0" stroke="#888" stroke-width="2.25" stroke-linecap="round"/><circle cx="894.0" cy="12.0" r="3.5" fill="#888" stroke="#fff" stroke-width="1"/><text class="legend-text" x="909.0" y="16.0">general</text></svg>