<svg xmlns="http://www.w3.org/2000/svg" viewBox="0 0 1200 320" width="1200" height="320" preserveAspectRatio="xMidYMid meet" role="img" aria-label="javascript: recall by FP level"><style>svg { background: #fdfdfd; }.frame { fill: #fff; stroke: #d8dde3; stroke-width: 1; }.grid { stroke: #eef0f3; stroke-width: 1; }.tick { stroke: #b8bfc7; stroke-width: 1; }.axis-label { fill: #5f6b78; font-family: -apple-system, BlinkMacSystemFont, "Segoe UI", system-ui, sans-serif; font-size: 12px; }.x-label { fill: #5f6b78; font-family: -apple-system, BlinkMacSystemFont, "Segoe UI", system-ui, sans-serif; font-size: 11px; }.axis-title { fill: #2d3540; font-family: -apple-system, BlinkMacSystemFont, "Segoe UI", system-ui, sans-serif; font-size: 12px; font-weight: 500; }.title { fill: #1a232e; font-family: -apple-system, BlinkMacSystemFont, "Segoe UI", system-ui, sans-serif; font-size: 14px; font-weight: 600; }.deploy-marker { stroke: #aab2bd; stroke-width: 1; stroke-dasharray: 5,4; }.deploy-label { fill: #6b7480; font-family: -apple-system, BlinkMacSystemFont, "Segoe UI", system-ui, sans-serif; font-size: 11px; font-style: italic; }.curve { fill: none; stroke-width: 2.25; stroke-linejoin: round; stroke-linecap: round; }.marker { stroke: #fff; stroke-width: 1; }.legend-text { fill: #2d3540; font-family: -apple-system, BlinkMacSystemFont, "Segoe UI", system-ui, sans-serif; font-size: 12px; font-weight: 500; }</style><text class="title" x="70" y="16">javascript: recall by FP level</text><rect class="frame" x="70" y="24" width="1102" height="236"/><line class="grid" x1="70" y1="260.0" x2="1172" y2="260.0"/><text class="axis-label" x="60" y="264.0" text-anchor="end">0%</text><line class="grid" x1="70" y1="201.0" x2="1172" y2="201.0"/><text class="axis-label" x="60" y="205.0" text-anchor="end">25%</text><line class="grid" x1="70" y1="142.0" x2="1172" y2="142.0"/><text class="axis-label" x="60" y="146.0" text-anchor="end">50%</text><line class="grid" x1="70" y1="83.0" x2="1172" y2="83.0"/><text class="axis-label" x="60" y="87.0" text-anchor="end">75%</text><line class="grid" x1="70" y1="24.0" x2="1172" y2="24.0"/><text class="axis-label" x="60" y="28.0" text-anchor="end">100%</text><line class="deploy-marker" x1="493.8" y1="24" x2="493.8" y2="260"/><text class="deploy-label" x="497.8" y="36" text-anchor="start">deploy L50</text><line class="tick" x1="70.0" y1="260" x2="70.0" y2="264"/><text class="x-label" x="70.0" y="278" text-anchor="middle">L0</text><line class="tick" x1="112.4" y1="260" x2="112.4" y2="264"/><text class="x-label" x="112.4" y="278" text-anchor="middle">L1</text><line class="tick" x1="154.8" y1="260" x2="154.8" y2="264"/><text class="x-label" x="154.8" y="278" text-anchor="middle">L2</text><line class="tick" x1="197.2" y1="260" x2="197.2" y2="264"/><text class="x-label" x="197.2" y="278" text-anchor="middle">L3</text><line class="tick" x1="239.5" y1="260" x2="239.5" y2="264"/><text class="x-label" x="239.5" y="278" text-anchor="middle">L4</text><line class="tick" x1="281.9" y1="260" x2="281.9" y2="264"/><text class="x-label" x="281.9" y="278" text-anchor="middle">L5</text><line class="tick" x1="324.3" y1="260" x2="324.3" y2="264"/><text class="x-label" x="324.3" y="278" text-anchor="middle">L10</text><line class="tick" x1="366.7" y1="260" x2="366.7" y2="264"/><text class="x-label" x="366.7" y="278" text-anchor="middle">L20</text><line class="tick" x1="409.1" y1="260" x2="409.1" y2="264"/><text class="x-label" x="409.1" y="278" text-anchor="middle">L30</text><line class="tick" x1="451.5" y1="260" x2="451.5" y2="264"/><text class="x-label" x="451.5" y="278" text-anchor="middle">L40</text><line class="tick" x1="493.8" y1="260" x2="493.8" y2="264"/><text class="x-label" x="493.8" y="278" text-anchor="middle">L50</text><line class="tick" x1="536.2" y1="260" x2="536.2" y2="264"/><text class="x-label" x="536.2" y="278" text-anchor="middle">L60</text><line class="tick" x1="578.6" y1="260" x2="578.6" y2="264"/><text class="x-label" x="578.6" y="278" text-anchor="middle">L70</text><line class="tick" x1="621.0" y1="260" x2="621.0" y2="264"/><text class="x-label" x="621.0" y="278" text-anchor="middle">L80</text><line class="tick" x1="663.4" y1="260" x2="663.4" y2="264"/><text class="x-label" x="663.4" y="278" text-anchor="middle">L90</text><line class="tick" x1="705.8" y1="260" x2="705.8" y2="264"/><text class="x-label" x="705.8" y="278" text-anchor="middle">L100</text><line class="tick" x1="748.2" y1="260" x2="748.2" y2="264"/><text class="x-label" x="748.2" y="278" text-anchor="middle">L200</text><line class="tick" x1="790.5" y1="260" x2="790.5" y2="264"/><text class="x-label" x="790.5" y="278" text-anchor="middle">L300</text><line class="tick" x1="832.9" y1="260" x2="832.9" y2="264"/><text class="x-label" x="832.9" y="278" text-anchor="middle">L500</text><line class="tick" x1="875.3" y1="260" x2="875.3" y2="264"/><text class="x-label" x="875.3" y="278" text-anchor="middle">L1000</text><line class="tick" x1="917.7" y1="260" x2="917.7" y2="264"/><text class="x-label" x="917.7" y="278" text-anchor="middle">L2000</text><line class="tick" x1="960.1" y1="260" x2="960.1" y2="264"/><text class="x-label" x="960.1" y="278" text-anchor="middle">L5000</text><line class="tick" x1="1002.5" y1="260" x2="1002.5" y2="264"/><text class="x-label" x="1002.5" y="278" text-anchor="middle">L7500</text><line class="tick" x1="1044.8" y1="260" x2="1044.8" y2="264"/><text class="x-label" x="1044.8" y="278" text-anchor="middle">L10000</text><line class="tick" x1="1087.2" y1="260" x2="1087.2" y2="264"/><text class="x-label" x="1087.2" y="278" text-anchor="middle">L15000</text><line class="tick" x1="1129.6" y1="260" x2="1129.6" y2="264"/><text class="x-label" x="1129.6" y="278" text-anchor="middle">L20000</text><line class="tick" x1="1172.0" y1="260" x2="1172.0" y2="264"/><text class="x-label" x="1172.0" y="278" text-anchor="middle">L25000</text><text class="axis-title" x="621.0" y="304" text-anchor="middle">Severity level (FP per 100M benigns)</text><path class="curve" d="M112.4,160.7 L154.8,160.7 L197.2,160.7 L239.5,160.7 L281.9,160.7 L324.3,160.6 L366.7,160.6 L409.1,160.5 L451.5,160.4 L493.8,160.3 L536.2,160.2 L578.6,160.2 L621.0,159.5 L663.4,159.4 L705.8,159.3 L748.2,157.6 L790.5,156.5 L832.9,153.2 L875.3,145.5 L917.7,139.6 L960.1,114.0 L1002.5,109.2 L1044.8,106.0 L1087.2,100.3 L1129.6,97.3 L1172.0,95.2" stroke="#888"/><circle class="marker" cx="112.4" cy="160.7" r="3.5" fill="#888"/><circle class="marker" cx="154.8" cy="160.7" r="3.5" fill="#888"/><circle class="marker" cx="197.2" cy="160.7" r="3.5" fill="#888"/><circle class="marker" cx="239.5" cy="160.7" r="3.5" fill="#888"/><circle class="marker" cx="281.9" cy="160.7" r="3.5" fill="#888"/><circle class="marker" cx="324.3" cy="160.6" r="3.5" fill="#888"/><circle class="marker" cx="366.7" cy="160.6" r="3.5" fill="#888"/><circle class="marker" cx="409.1" cy="160.5" r="3.5" fill="#888"/><circle class="marker" cx="451.5" cy="160.4" r="3.5" fill="#888"/><circle class="marker" cx="493.8" cy="160.3" r="3.5" fill="#888"/><circle class="marker" cx="536.2" cy="160.2" r="3.5" fill="#888"/><circle class="marker" cx="578.6" cy="160.2" r="3.5" fill="#888"/><circle class="marker" cx="621.0" cy="159.5" r="3.5" fill="#888"/><circle class="marker" cx="663.4" cy="159.4" r="3.5" fill="#888"/><circle class="marker" cx="705.8" cy="159.3" r="3.5" fill="#888"/><circle class="marker" cx="748.2" cy="157.6" r="3.5" fill="#888"/><circle class="marker" cx="790.5" cy="156.5" r="3.5" fill="#888"/><circle class="marker" cx="832.9" cy="153.2" r="3.5" fill="#888"/><circle class="marker" cx="875.3" cy="145.5" r="3.5" fill="#888"/><circle class="marker" cx="917.7" cy="139.6" r="3.5" fill="#888"/><circle class="marker" cx="960.1" cy="114.0" r="3.5" fill="#888"/><circle class="marker" cx="1002.5" cy="109.2" r="3.5" fill="#888"/><circle class="marker" cx="1044.8" cy="106.0" r="3.5" fill="#888"/><circle class="marker" cx="1087.2" cy="100.3" r="3.5" fill="#888"/><circle class="marker" cx="1129.6" cy="97.3" r="3.5" fill="#888"/><circle class="marker" cx="1172.0" cy="95.2" r="3.5" fill="#888"/><path class="curve" d="M112.4,113.7 L154.8,113.7 L197.2,113.7 L239.5,113.7 L281.9,113.7 L324.3,113.7 L366.7,113.7 L409.1,113.7 L451.5,113.7 L493.8,113.7 L536.2,113.6 L578.6,113.6 L621.0,113.6 L663.4,113.6 L705.8,113.6 L748.2,113.4 L790.5,113.4 L832.9,113.2 L875.3,112.5 L917.7,108.9 L960.1,98.8 L1002.5,94.6 L1044.8,91.8 L1087.2,85.6 L1129.6,82.4 L1172.0,78.2" stroke="#3a7"/><circle class="marker" cx="112.4" cy="113.7" r="3.5" fill="#3a7"/><circle class="marker" cx="154.8" cy="113.7" r="3.5" fill="#3a7"/><circle class="marker" cx="197.2" cy="113.7" r="3.5" fill="#3a7"/><circle class="marker" cx="239.5" cy="113.7" r="3.5" fill="#3a7"/><circle class="marker" cx="281.9" cy="113.7" r="3.5" fill="#3a7"/><circle class="marker" cx="324.3" cy="113.7" r="3.5" fill="#3a7"/><circle class="marker" cx="366.7" cy="113.7" r="3.5" fill="#3a7"/><circle class="marker" cx="409.1" cy="113.7" r="3.5" fill="#3a7"/><circle class="marker" cx="451.5" cy="113.7" r="3.5" fill="#3a7"/><circle class="marker" cx="493.8" cy="113.7" r="3.5" fill="#3a7"/><circle class="marker" cx="536.2" cy="113.6" r="3.5" fill="#3a7"/><circle class="marker" cx="578.6" cy="113.6" r="3.5" fill="#3a7"/><circle class="marker" cx="621.0" cy="113.6" r="3.5" fill="#3a7"/><circle class="marker" cx="663.4" cy="113.6" r="3.5" fill="#3a7"/><circle class="marker" cx="705.8" cy="113.6" r="3.5" fill="#3a7"/><circle class="marker" cx="748.2" cy="113.4" r="3.5" fill="#3a7"/><circle class="marker" cx="790.5" cy="113.4" r="3.5" fill="#3a7"/><circle class="marker" cx="832.9" cy="113.2" r="3.5" fill="#3a7"/><circle class="marker" cx="875.3" cy="112.5" r="3.5" fill="#3a7"/><circle class="marker" cx="917.7" cy="108.9" r="3.5" fill="#3a7"/><circle class="marker" cx="960.1" cy="98.8" r="3.5" fill="#3a7"/><circle class="marker" cx="1002.5" cy="94.6" r="3.5" fill="#3a7"/><circle class="marker" cx="1044.8" cy="91.8" r="3.5" fill="#3a7"/><circle class="marker" cx="1087.2" cy="85.6" r="3.5" fill="#3a7"/><circle class="marker" cx="1129.6" cy="82.4" r="3.5" fill="#3a7"/><circle class="marker" cx="1172.0" cy="78.2" r="3.5" fill="#3a7"/><path class="curve" d="M112.4,113.0 L154.8,113.0 L197.2,113.0 L239.5,113.0 L281.9,113.0 L324.3,113.0 L366.7,113.0 L409.1,113.0 L451.5,113.0 L493.8,113.0 L536.2,113.0 L578.6,113.0 L621.0,113.0 L663.4,113.0 L705.8,113.0 L748.2,112.6 L790.5,112.0 L832.9,111.5 L875.3,111.1 L917.7,109.2 L960.1,105.8 L1002.5,100.1 L1044.8,96.7 L1087.2,91.4 L1129.6,84.5 L1172.0,80.2" stroke="#06c"/><circle class="marker" cx="112.4" cy="113.0" r="3.5" fill="#06c"/><circle class="marker" cx="154.8" cy="113.0" r="3.5" fill="#06c"/><circle class="marker" cx="197.2" cy="113.0" r="3.5" fill="#06c"/><circle class="marker" cx="239.5" cy="113.0" r="3.5" fill="#06c"/><circle class="marker" cx="281.9" cy="113.0" r="3.5" fill="#06c"/><circle class="marker" cx="324.3" cy="113.0" r="3.5" fill="#06c"/><circle class="marker" cx="366.7" cy="113.0" r="3.5" fill="#06c"/><circle class="marker" cx="409.1" cy="113.0" r="3.5" fill="#06c"/><circle class="marker" cx="451.5" cy="113.0" r="3.5" fill="#06c"/><circle class="marker" cx="493.8" cy="113.0" r="3.5" fill="#06c"/><circle class="marker" cx="536.2" cy="113.0" r="3.5" fill="#06c"/><circle class="marker" cx="578.6" cy="113.0" r="3.5" fill="#06c"/><circle class="marker" cx="621.0" cy="113.0" r="3.5" fill="#06c"/><circle class="marker" cx="663.4" cy="113.0" r="3.5" fill="#06c"/><circle class="marker" cx="705.8" cy="113.0" r="3.5" fill="#06c"/><circle class="marker" cx="748.2" cy="112.6" r="3.5" fill="#06c"/><circle class="marker" cx="790.5" cy="112.0" r="3.5" fill="#06c"/><circle class="marker" cx="832.9" cy="111.5" r="3.5" fill="#06c"/><circle class="marker" cx="875.3" cy="111.1" r="3.5" fill="#06c"/><circle class="marker" cx="917.7" cy="109.2" r="3.5" fill="#06c"/><circle class="marker" cx="960.1" cy="105.8" r="3.5" fill="#06c"/><circle class="marker" cx="1002.5" cy="100.1" r="3.5" fill="#06c"/><circle class="marker" cx="1044.8" cy="96.7" r="3.5" fill="#06c"/><circle class="marker" cx="1087.2" cy="91.4" r="3.5" fill="#06c"/><circle class="marker" cx="1129.6" cy="84.5" r="3.5" fill="#06c"/><circle class="marker" cx="1172.0" cy="80.2" r="3.5" fill="#06c"/><line x1="1088.0" y1="12.0" x2="1106.0" y2="12.0" stroke="#06c" stroke-width="2.25" stroke-linecap="round"/><circle cx="1097.0" cy="12.0" r="3.5" fill="#06c" stroke="#fff" stroke-width="1"/><text class="legend-text" x="1112.0" y="16.0">ensemble</text><line x1="976.0" y1="12.0" x2="994.0" y2="12.0" stroke="#3a7" stroke-width="2.25" stroke-linecap="round"/><circle cx="985.0" cy="12.0" r="3.5" fill="#3a7" stroke="#fff" stroke-width="1"/><text class="legend-text" x="1000.0" y="16.0">specialist</text><line x1="885.0" y1="12.0" x2="903.0" y2="12.0" stroke="#888" stroke-width="2.25" stroke-linecap="round"/><circle cx="894.0" cy="12.0" r="3.5" fill="#888" stroke="#fff" stroke-width="1"/><text class="legend-text" x="909.0" y="16.0">general</text></svg>