<svg xmlns="http://www.w3.org/2000/svg" viewBox="0 0 1200 320" width="1200" height="320" preserveAspectRatio="xMidYMid meet" role="img" aria-label="ole_doc: recall by FP level"><style>svg { background: #fdfdfd; }.frame { fill: #fff; stroke: #d8dde3; stroke-width: 1; }.grid { stroke: #eef0f3; stroke-width: 1; }.tick { stroke: #b8bfc7; stroke-width: 1; }.axis-label { fill: #5f6b78; font-family: -apple-system, BlinkMacSystemFont, "Segoe UI", system-ui, sans-serif; font-size: 12px; }.x-label { fill: #5f6b78; font-family: -apple-system, BlinkMacSystemFont, "Segoe UI", system-ui, sans-serif; font-size: 11px; }.axis-title { fill: #2d3540; font-family: -apple-system, BlinkMacSystemFont, "Segoe UI", system-ui, sans-serif; font-size: 12px; font-weight: 500; }.title { fill: #1a232e; font-family: -apple-system, BlinkMacSystemFont, "Segoe UI", system-ui, sans-serif; font-size: 14px; font-weight: 600; }.deploy-marker { stroke: #aab2bd; stroke-width: 1; stroke-dasharray: 5,4; }.deploy-label { fill: #6b7480; font-family: -apple-system, BlinkMacSystemFont, "Segoe UI", system-ui, sans-serif; font-size: 11px; font-style: italic; }.curve { fill: none; stroke-width: 2.25; stroke-linejoin: round; stroke-linecap: round; }.marker { stroke: #fff; stroke-width: 1; }.legend-text { fill: #2d3540; font-family: -apple-system, BlinkMacSystemFont, "Segoe UI", system-ui, sans-serif; font-size: 12px; font-weight: 500; }</style><text class="title" x="70" y="16">ole_doc: recall by FP level</text><rect class="frame" x="70" y="24" width="1102" height="236"/><line class="grid" x1="70" y1="260.0" x2="1172" y2="260.0"/><text class="axis-label" x="60" y="264.0" text-anchor="end">0%</text><line class="grid" x1="70" y1="201.0" x2="1172" y2="201.0"/><text class="axis-label" x="60" y="205.0" text-anchor="end">25%</text><line class="grid" x1="70" y1="142.0" x2="1172" y2="142.0"/><text class="axis-label" x="60" y="146.0" text-anchor="end">50%</text><line class="grid" x1="70" y1="83.0" x2="1172" y2="83.0"/><text class="axis-label" x="60" y="87.0" text-anchor="end">75%</text><line class="grid" x1="70" y1="24.0" x2="1172" y2="24.0"/><text class="axis-label" x="60" y="28.0" text-anchor="end">100%</text><line class="deploy-marker" x1="311.9" y1="24" x2="311.9" y2="260"/><text class="deploy-label" x="315.9" y="36" text-anchor="start">deploy L25</text><line class="tick" x1="70.0" y1="260" x2="70.0" y2="264"/><text class="x-label" x="70.0" y="278" text-anchor="middle">L0</text><line class="tick" x1="96.9" y1="260" x2="96.9" y2="264"/><text class="x-label" x="96.9" y="278" text-anchor="middle">L1</text><line class="tick" x1="123.8" y1="260" x2="123.8" y2="264"/><text class="x-label" x="123.8" y="278" text-anchor="middle">L2</text><line class="tick" x1="150.6" y1="260" x2="150.6" y2="264"/><text class="x-label" x="150.6" y="278" text-anchor="middle">L3</text><line class="tick" x1="177.5" y1="260" x2="177.5" y2="264"/><text class="x-label" x="177.5" y="278" text-anchor="middle">L4</text><line class="tick" x1="204.4" y1="260" x2="204.4" y2="264"/><text class="x-label" x="204.4" y="278" text-anchor="middle">L5</text><line class="tick" x1="231.3" y1="260" x2="231.3" y2="264"/><text class="x-label" x="231.3" y="278" text-anchor="middle">L10</text><line class="tick" x1="258.1" y1="260" x2="258.1" y2="264"/><text class="x-label" x="258.1" y="278" text-anchor="middle">L15</text><line class="tick" x1="285.0" y1="260" x2="285.0" y2="264"/><text class="x-label" x="285.0" y="278" text-anchor="middle">L20</text><line class="tick" x1="311.9" y1="260" x2="311.9" y2="264"/><text class="x-label" x="311.9" y="278" text-anchor="middle">L25</text><line class="tick" x1="338.8" y1="260" x2="338.8" y2="264"/><text class="x-label" x="338.8" y="278" text-anchor="middle">L30</text><line class="tick" x1="365.7" y1="260" x2="365.7" y2="264"/><text class="x-label" x="365.7" y="278" text-anchor="middle">L40</text><line class="tick" x1="392.5" y1="260" x2="392.5" y2="264"/><text class="x-label" x="392.5" y="278" text-anchor="middle">L50</text><line class="tick" x1="419.4" y1="260" x2="419.4" y2="264"/><text class="x-label" x="419.4" y="278" text-anchor="middle">L60</text><line class="tick" x1="446.3" y1="260" x2="446.3" y2="264"/><text class="x-label" x="446.3" y="278" text-anchor="middle">L70</text><line class="tick" x1="473.2" y1="260" x2="473.2" y2="264"/><text class="x-label" x="473.2" y="278" text-anchor="middle">L80</text><line class="tick" x1="500.0" y1="260" x2="500.0" y2="264"/><text class="x-label" x="500.0" y="278" text-anchor="middle">L90</text><line class="tick" x1="526.9" y1="260" x2="526.9" y2="264"/><text class="x-label" x="526.9" y="278" text-anchor="middle">L100</text><line class="tick" x1="553.8" y1="260" x2="553.8" y2="264"/><text class="x-label" x="553.8" y="278" text-anchor="middle">L125</text><line class="tick" x1="580.7" y1="260" x2="580.7" y2="264"/><text class="x-label" x="580.7" y="278" text-anchor="middle">L150</text><line class="tick" x1="607.6" y1="260" x2="607.6" y2="264"/><text class="x-label" x="607.6" y="278" text-anchor="middle">L175</text><line class="tick" x1="634.4" y1="260" x2="634.4" y2="264"/><text class="x-label" x="634.4" y="278" text-anchor="middle">L200</text><line class="tick" x1="661.3" y1="260" x2="661.3" y2="264"/><text class="x-label" x="661.3" y="278" text-anchor="middle">L250</text><line class="tick" x1="688.2" y1="260" x2="688.2" y2="264"/><text class="x-label" x="688.2" y="278" text-anchor="middle">L300</text><line class="tick" x1="715.1" y1="260" x2="715.1" y2="264"/><text class="x-label" x="715.1" y="278" text-anchor="middle">L500</text><line class="tick" x1="742.0" y1="260" x2="742.0" y2="264"/><text class="x-label" x="742.0" y="278" text-anchor="middle">L750</text><line class="tick" x1="768.8" y1="260" x2="768.8" y2="264"/><text class="x-label" x="768.8" y="278" text-anchor="middle">L1000</text><line class="tick" x1="795.7" y1="260" x2="795.7" y2="264"/><text class="x-label" x="795.7" y="278" text-anchor="middle">L1250</text><line class="tick" x1="822.6" y1="260" x2="822.6" y2="264"/><text class="x-label" x="822.6" y="278" text-anchor="middle">L1500</text><line class="tick" x1="849.5" y1="260" x2="849.5" y2="264"/><text class="x-label" x="849.5" y="278" text-anchor="middle">L1750</text><line class="tick" x1="876.3" y1="260" x2="876.3" y2="264"/><text class="x-label" x="876.3" y="278" text-anchor="middle">L2000</text><line class="tick" x1="903.2" y1="260" x2="903.2" y2="264"/><text class="x-label" x="903.2" y="278" text-anchor="middle">L2250</text><line class="tick" x1="930.1" y1="260" x2="930.1" y2="264"/><text class="x-label" x="930.1" y="278" text-anchor="middle">L2500</text><line class="tick" x1="957.0" y1="260" x2="957.0" y2="264"/><text class="x-label" x="957.0" y="278" text-anchor="middle">L3000</text><line class="tick" x1="983.9" y1="260" x2="983.9" y2="264"/><text class="x-label" x="983.9" y="278" text-anchor="middle">L4000</text><line class="tick" x1="1010.7" y1="260" x2="1010.7" y2="264"/><text class="x-label" x="1010.7" y="278" text-anchor="middle">L5000</text><line class="tick" x1="1037.6" y1="260" x2="1037.6" y2="264"/><text class="x-label" x="1037.6" y="278" text-anchor="middle">L6000</text><line class="tick" x1="1064.5" y1="260" x2="1064.5" y2="264"/><text class="x-label" x="1064.5" y="278" text-anchor="middle">L7500</text><line class="tick" x1="1091.4" y1="260" x2="1091.4" y2="264"/><text class="x-label" x="1091.4" y="278" text-anchor="middle">L10000</text><line class="tick" x1="1118.2" y1="260" x2="1118.2" y2="264"/><text class="x-label" x="1118.2" y="278" text-anchor="middle">L15000</text><line class="tick" x1="1145.1" y1="260" x2="1145.1" y2="264"/><text class="x-label" x="1145.1" y="278" text-anchor="middle">L20000</text><line class="tick" x1="1172.0" y1="260" x2="1172.0" y2="264"/><text class="x-label" x="1172.0" y="278" text-anchor="middle">L25000</text><text class="axis-title" x="621.0" y="304" text-anchor="middle">Severity level (FP per 100M benigns)</text><path class="curve" d="M96.9,259.8 L123.8,259.8 L150.6,259.8 L177.5,259.8 L204.4,259.8 L231.3,255.7 L285.0,251.4 L338.8,234.3 L365.7,207.6 L392.5,207.6 L419.4,207.6 L446.3,207.6 L473.2,206.7 L500.0,182.5 L526.9,182.3 L553.8,70.8 L580.7,63.7 L607.6,63.7 L634.4,63.7 L661.3,63.7 L688.2,48.9 L715.1,48.8 L768.8,48.1 L876.3,48.1 L1010.7,48.1 L1064.5,48.1 L1091.4,48.1 L1118.2,48.1 L1145.1,48.1 L1172.0,48.1" stroke="#888"/><circle class="marker" cx="96.9" cy="259.8" r="3.5" fill="#888"/><circle class="marker" cx="123.8" cy="259.8" r="3.5" fill="#888"/><circle class="marker" cx="150.6" cy="259.8" r="3.5" fill="#888"/><circle class="marker" cx="177.5" cy="259.8" r="3.5" fill="#888"/><circle class="marker" cx="204.4" cy="259.8" r="3.5" fill="#888"/><circle class="marker" cx="231.3" cy="255.7" r="3.5" fill="#888"/><circle class="marker" cx="285.0" cy="251.4" r="3.5" fill="#888"/><circle class="marker" cx="338.8" cy="234.3" r="3.5" fill="#888"/><circle class="marker" cx="365.7" cy="207.6" r="3.5" fill="#888"/><circle class="marker" cx="392.5" cy="207.6" r="3.5" fill="#888"/><circle class="marker" cx="419.4" cy="207.6" r="3.5" fill="#888"/><circle class="marker" cx="446.3" cy="207.6" r="3.5" fill="#888"/><circle class="marker" cx="473.2" cy="206.7" r="3.5" fill="#888"/><circle class="marker" cx="500.0" cy="182.5" r="3.5" fill="#888"/><circle class="marker" cx="526.9" cy="182.3" r="3.5" fill="#888"/><circle class="marker" cx="553.8" cy="70.8" r="3.5" fill="#888"/><circle class="marker" cx="580.7" cy="63.7" r="3.5" fill="#888"/><circle class="marker" cx="607.6" cy="63.7" r="3.5" fill="#888"/><circle class="marker" cx="634.4" cy="63.7" r="3.5" fill="#888"/><circle class="marker" cx="661.3" cy="63.7" r="3.5" fill="#888"/><circle class="marker" cx="688.2" cy="48.9" r="3.5" fill="#888"/><circle class="marker" cx="715.1" cy="48.8" r="3.5" fill="#888"/><circle class="marker" cx="768.8" cy="48.1" r="3.5" fill="#888"/><circle class="marker" cx="876.3" cy="48.1" r="3.5" fill="#888"/><circle class="marker" cx="1010.7" cy="48.1" r="3.5" fill="#888"/><circle class="marker" cx="1064.5" cy="48.1" r="3.5" fill="#888"/><circle class="marker" cx="1091.4" cy="48.1" r="3.5" fill="#888"/><circle class="marker" cx="1118.2" cy="48.1" r="3.5" fill="#888"/><circle class="marker" cx="1145.1" cy="48.1" r="3.5" fill="#888"/><circle class="marker" cx="1172.0" cy="48.1" r="3.5" fill="#888"/><path class="curve" d="M96.9,50.1 L123.8,50.1 L150.6,50.1 L177.5,50.1 L204.4,50.1 L231.3,43.4 L285.0,41.4 L338.8,40.9 L365.7,40.9 L392.5,40.8 L419.4,40.7 L446.3,40.3 L473.2,40.3 L500.0,40.3 L526.9,40.3 L553.8,40.1 L580.7,40.0 L607.6,39.8 L634.4,39.8 L661.3,39.5 L688.2,39.4 L715.1,39.1 L768.8,38.8 L876.3,38.8 L1010.7,38.8 L1064.5,38.8 L1091.4,38.8 L1118.2,38.8 L1145.1,38.8 L1172.0,38.8" stroke="#3a7"/><circle class="marker" cx="96.9" cy="50.1" r="3.5" fill="#3a7"/><circle class="marker" cx="123.8" cy="50.1" r="3.5" fill="#3a7"/><circle class="marker" cx="150.6" cy="50.1" r="3.5" fill="#3a7"/><circle class="marker" cx="177.5" cy="50.1" r="3.5" fill="#3a7"/><circle class="marker" cx="204.4" cy="50.1" r="3.5" fill="#3a7"/><circle class="marker" cx="231.3" cy="43.4" r="3.5" fill="#3a7"/><circle class="marker" cx="285.0" cy="41.4" r="3.5" fill="#3a7"/><circle class="marker" cx="338.8" cy="40.9" r="3.5" fill="#3a7"/><circle class="marker" cx="365.7" cy="40.9" r="3.5" fill="#3a7"/><circle class="marker" cx="392.5" cy="40.8" r="3.5" fill="#3a7"/><circle class="marker" cx="419.4" cy="40.7" r="3.5" fill="#3a7"/><circle class="marker" cx="446.3" cy="40.3" r="3.5" fill="#3a7"/><circle class="marker" cx="473.2" cy="40.3" r="3.5" fill="#3a7"/><circle class="marker" cx="500.0" cy="40.3" r="3.5" fill="#3a7"/><circle class="marker" cx="526.9" cy="40.3" r="3.5" fill="#3a7"/><circle class="marker" cx="553.8" cy="40.1" r="3.5" fill="#3a7"/><circle class="marker" cx="580.7" cy="40.0" r="3.5" fill="#3a7"/><circle class="marker" cx="607.6" cy="39.8" r="3.5" fill="#3a7"/><circle class="marker" cx="634.4" cy="39.8" r="3.5" fill="#3a7"/><circle class="marker" cx="661.3" cy="39.5" r="3.5" fill="#3a7"/><circle class="marker" cx="688.2" cy="39.4" r="3.5" fill="#3a7"/><circle class="marker" cx="715.1" cy="39.1" r="3.5" fill="#3a7"/><circle class="marker" cx="768.8" cy="38.8" r="3.5" fill="#3a7"/><circle class="marker" cx="876.3" cy="38.8" r="3.5" fill="#3a7"/><circle class="marker" cx="1010.7" cy="38.8" r="3.5" fill="#3a7"/><circle class="marker" cx="1064.5" cy="38.8" r="3.5" fill="#3a7"/><circle class="marker" cx="1091.4" cy="38.8" r="3.5" fill="#3a7"/><circle class="marker" cx="1118.2" cy="38.8" r="3.5" fill="#3a7"/><circle class="marker" cx="1145.1" cy="38.8" r="3.5" fill="#3a7"/><circle class="marker" cx="1172.0" cy="38.8" r="3.5" fill="#3a7"/><path class="curve" d="M96.9,48.7 L123.8,48.7 L150.6,48.7 L177.5,48.7 L204.4,48.7 L231.3,47.3 L285.0,42.5 L338.8,41.2 L365.7,40.7 L392.5,40.7 L419.4,40.6 L446.3,40.3 L473.2,40.3 L500.0,40.3 L526.9,40.3 L553.8,40.2 L580.7,40.1 L607.6,39.7 L634.4,39.7 L661.3,37.6 L688.2,37.6 L715.1,37.6 L768.8,36.0 L876.3,36.0 L1010.7,36.0 L1064.5,36.0 L1091.4,36.0 L1118.2,36.0 L1145.1,36.0 L1172.0,36.0" stroke="#06c"/><circle class="marker" cx="96.9" cy="48.7" r="3.5" fill="#06c"/><circle class="marker" cx="123.8" cy="48.7" r="3.5" fill="#06c"/><circle class="marker" cx="150.6" cy="48.7" r="3.5" fill="#06c"/><circle class="marker" cx="177.5" cy="48.7" r="3.5" fill="#06c"/><circle class="marker" cx="204.4" cy="48.7" r="3.5" fill="#06c"/><circle class="marker" cx="231.3" cy="47.3" r="3.5" fill="#06c"/><circle class="marker" cx="285.0" cy="42.5" r="3.5" fill="#06c"/><circle class="marker" cx="338.8" cy="41.2" r="3.5" fill="#06c"/><circle class="marker" cx="365.7" cy="40.7" r="3.5" fill="#06c"/><circle class="marker" cx="392.5" cy="40.7" r="3.5" fill="#06c"/><circle class="marker" cx="419.4" cy="40.6" r="3.5" fill="#06c"/><circle class="marker" cx="446.3" cy="40.3" r="3.5" fill="#06c"/><circle class="marker" cx="473.2" cy="40.3" r="3.5" fill="#06c"/><circle class="marker" cx="500.0" cy="40.3" r="3.5" fill="#06c"/><circle class="marker" cx="526.9" cy="40.3" r="3.5" fill="#06c"/><circle class="marker" cx="553.8" cy="40.2" r="3.5" fill="#06c"/><circle class="marker" cx="580.7" cy="40.1" r="3.5" fill="#06c"/><circle class="marker" cx="607.6" cy="39.7" r="3.5" fill="#06c"/><circle class="marker" cx="634.4" cy="39.7" r="3.5" fill="#06c"/><circle class="marker" cx="661.3" cy="37.6" r="3.5" fill="#06c"/><circle class="marker" cx="688.2" cy="37.6" r="3.5" fill="#06c"/><circle class="marker" cx="715.1" cy="37.6" r="3.5" fill="#06c"/><circle class="marker" cx="768.8" cy="36.0" r="3.5" fill="#06c"/><circle class="marker" cx="876.3" cy="36.0" r="3.5" fill="#06c"/><circle class="marker" cx="1010.7" cy="36.0" r="3.5" fill="#06c"/><circle class="marker" cx="1064.5" cy="36.0" r="3.5" fill="#06c"/><circle class="marker" cx="1091.4" cy="36.0" r="3.5" fill="#06c"/><circle class="marker" cx="1118.2" cy="36.0" r="3.5" fill="#06c"/><circle class="marker" cx="1145.1" cy="36.0" r="3.5" fill="#06c"/><circle class="marker" cx="1172.0" cy="36.0" r="3.5" fill="#06c"/><line x1="1088.0" y1="12.0" x2="1106.0" y2="12.0" stroke="#06c" stroke-width="2.25" stroke-linecap="round"/><circle cx="1097.0" cy="12.0" r="3.5" fill="#06c" stroke="#fff" stroke-width="1"/><text class="legend-text" x="1112.0" y="16.0">ensemble</text><line x1="976.0" y1="12.0" x2="994.0" y2="12.0" stroke="#3a7" stroke-width="2.25" stroke-linecap="round"/><circle cx="985.0" cy="12.0" r="3.5" fill="#3a7" stroke="#fff" stroke-width="1"/><text class="legend-text" x="1000.0" y="16.0">specialist</text><line x1="885.0" y1="12.0" x2="903.0" y2="12.0" stroke="#888" stroke-width="2.25" stroke-linecap="round"/><circle cx="894.0" cy="12.0" r="3.5" fill="#888" stroke="#fff" stroke-width="1"/><text class="legend-text" x="909.0" y="16.0">general</text></svg>