<svg xmlns="http://www.w3.org/2000/svg" viewBox="0 0 1200 320" width="1200" height="320" preserveAspectRatio="xMidYMid meet" role="img" aria-label="ole: recall by FP level"><style>svg { background: #fdfdfd; }.frame { fill: #fff; stroke: #d8dde3; stroke-width: 1; }.grid { stroke: #eef0f3; stroke-width: 1; }.tick { stroke: #b8bfc7; stroke-width: 1; }.axis-label { fill: #5f6b78; font-family: -apple-system, BlinkMacSystemFont, "Segoe UI", system-ui, sans-serif; font-size: 12px; }.x-label { fill: #5f6b78; font-family: -apple-system, BlinkMacSystemFont, "Segoe UI", system-ui, sans-serif; font-size: 11px; }.axis-title { fill: #2d3540; font-family: -apple-system, BlinkMacSystemFont, "Segoe UI", system-ui, sans-serif; font-size: 12px; font-weight: 500; }.title { fill: #1a232e; font-family: -apple-system, BlinkMacSystemFont, "Segoe UI", system-ui, sans-serif; font-size: 14px; font-weight: 600; }.deploy-marker { stroke: #aab2bd; stroke-width: 1; stroke-dasharray: 5,4; }.deploy-label { fill: #6b7480; font-family: -apple-system, BlinkMacSystemFont, "Segoe UI", system-ui, sans-serif; font-size: 11px; font-style: italic; }.curve { fill: none; stroke-width: 2.25; stroke-linejoin: round; stroke-linecap: round; }.marker { stroke: #fff; stroke-width: 1; }.legend-text { fill: #2d3540; font-family: -apple-system, BlinkMacSystemFont, "Segoe UI", system-ui, sans-serif; font-size: 12px; font-weight: 500; }</style><text class="title" x="70" y="16">ole: recall by FP level</text><rect class="frame" x="70" y="24" width="1102" height="236"/><line class="grid" x1="70" y1="260.0" x2="1172" y2="260.0"/><text class="axis-label" x="60" y="264.0" text-anchor="end">0%</text><line class="grid" x1="70" y1="201.0" x2="1172" y2="201.0"/><text class="axis-label" x="60" y="205.0" text-anchor="end">25%</text><line class="grid" x1="70" y1="142.0" x2="1172" y2="142.0"/><text class="axis-label" x="60" y="146.0" text-anchor="end">50%</text><line class="grid" x1="70" y1="83.0" x2="1172" y2="83.0"/><text class="axis-label" x="60" y="87.0" text-anchor="end">75%</text><line class="grid" x1="70" y1="24.0" x2="1172" y2="24.0"/><text class="axis-label" x="60" y="28.0" text-anchor="end">100%</text><line class="deploy-marker" x1="261.7" y1="24" x2="261.7" y2="260"/><text class="deploy-label" x="265.7" y="36" text-anchor="start">deploy L4</text><line class="tick" x1="70.0" y1="260" x2="70.0" y2="264"/><text class="x-label" x="70.0" y="278" text-anchor="middle">L0</text><line class="tick" x1="117.9" y1="260" x2="117.9" y2="264"/><text class="x-label" x="117.9" y="278" text-anchor="middle">L1</text><line class="tick" x1="165.8" y1="260" x2="165.8" y2="264"/><text class="x-label" x="165.8" y="278" text-anchor="middle">L2</text><line class="tick" x1="213.7" y1="260" x2="213.7" y2="264"/><text class="x-label" x="213.7" y="278" text-anchor="middle">L3</text><line class="tick" x1="261.7" y1="260" x2="261.7" y2="264"/><text class="x-label" x="261.7" y="278" text-anchor="middle">L4</text><line class="tick" x1="309.6" y1="260" x2="309.6" y2="264"/><text class="x-label" x="309.6" y="278" text-anchor="middle">L5</text><line class="tick" x1="357.5" y1="260" x2="357.5" y2="264"/><text class="x-label" x="357.5" y="278" text-anchor="middle">L10</text><line class="tick" x1="405.4" y1="260" x2="405.4" y2="264"/><text class="x-label" x="405.4" y="278" text-anchor="middle">L20</text><line class="tick" x1="453.3" y1="260" x2="453.3" y2="264"/><text class="x-label" x="453.3" y="278" text-anchor="middle">L30</text><line class="tick" x1="501.2" y1="260" x2="501.2" y2="264"/><text class="x-label" x="501.2" y="278" text-anchor="middle">L40</text><line class="tick" x1="549.1" y1="260" x2="549.1" y2="264"/><text class="x-label" x="549.1" y="278" text-anchor="middle">L50</text><line class="tick" x1="597.0" y1="260" x2="597.0" y2="264"/><text class="x-label" x="597.0" y="278" text-anchor="middle">L60</text><line class="tick" x1="645.0" y1="260" x2="645.0" y2="264"/><text class="x-label" x="645.0" y="278" text-anchor="middle">L70</text><line class="tick" x1="692.9" y1="260" x2="692.9" y2="264"/><text class="x-label" x="692.9" y="278" text-anchor="middle">L80</text><line class="tick" x1="740.8" y1="260" x2="740.8" y2="264"/><text class="x-label" x="740.8" y="278" text-anchor="middle">L90</text><line class="tick" x1="788.7" y1="260" x2="788.7" y2="264"/><text class="x-label" x="788.7" y="278" text-anchor="middle">L100</text><line class="tick" x1="836.6" y1="260" x2="836.6" y2="264"/><text class="x-label" x="836.6" y="278" text-anchor="middle">L200</text><line class="tick" x1="884.5" y1="260" x2="884.5" y2="264"/><text class="x-label" x="884.5" y="278" text-anchor="middle">L300</text><line class="tick" x1="932.4" y1="260" x2="932.4" y2="264"/><text class="x-label" x="932.4" y="278" text-anchor="middle">L500</text><line class="tick" x1="980.3" y1="260" x2="980.3" y2="264"/><text class="x-label" x="980.3" y="278" text-anchor="middle">L1000</text><line class="tick" x1="1028.3" y1="260" x2="1028.3" y2="264"/><text class="x-label" x="1028.3" y="278" text-anchor="middle">L2000</text><line class="tick" x1="1076.2" y1="260" x2="1076.2" y2="264"/><text class="x-label" x="1076.2" y="278" text-anchor="middle">L5000</text><line class="tick" x1="1124.1" y1="260" x2="1124.1" y2="264"/><text class="x-label" x="1124.1" y="278" text-anchor="middle">L7500</text><line class="tick" x1="1172.0" y1="260" x2="1172.0" y2="264"/><text class="x-label" x="1172.0" y="278" text-anchor="middle">L10000</text><text class="axis-title" x="621.0" y="304" text-anchor="middle">Severity level (FP per 100M benigns)</text><path class="curve" d="M117.9,67.3 L165.8,67.3 L213.7,67.3 L261.7,67.3 L309.6,67.3 L357.5,67.3 L405.4,66.7 L453.3,66.4 L501.2,66.1 L549.1,66.1 L597.0,66.1 L645.0,66.1 L692.9,66.1 L740.8,66.1 L788.7,66.1 L836.6,66.1 L884.5,66.1 L932.4,66.1 L980.3,66.1 L1028.3,65.8 L1076.2,65.5 L1124.1,65.5 L1172.0,65.5" stroke="#888"/><circle class="marker" cx="117.9" cy="67.3" r="3.5" fill="#888"/><circle class="marker" cx="165.8" cy="67.3" r="3.5" fill="#888"/><circle class="marker" cx="213.7" cy="67.3" r="3.5" fill="#888"/><circle class="marker" cx="261.7" cy="67.3" r="3.5" fill="#888"/><circle class="marker" cx="309.6" cy="67.3" r="3.5" fill="#888"/><circle class="marker" cx="357.5" cy="67.3" r="3.5" fill="#888"/><circle class="marker" cx="405.4" cy="66.7" r="3.5" fill="#888"/><circle class="marker" cx="453.3" cy="66.4" r="3.5" fill="#888"/><circle class="marker" cx="501.2" cy="66.1" r="3.5" fill="#888"/><circle class="marker" cx="549.1" cy="66.1" r="3.5" fill="#888"/><circle class="marker" cx="597.0" cy="66.1" r="3.5" fill="#888"/><circle class="marker" cx="645.0" cy="66.1" r="3.5" fill="#888"/><circle class="marker" cx="692.9" cy="66.1" r="3.5" fill="#888"/><circle class="marker" cx="740.8" cy="66.1" r="3.5" fill="#888"/><circle class="marker" cx="788.7" cy="66.1" r="3.5" fill="#888"/><circle class="marker" cx="836.6" cy="66.1" r="3.5" fill="#888"/><circle class="marker" cx="884.5" cy="66.1" r="3.5" fill="#888"/><circle class="marker" cx="932.4" cy="66.1" r="3.5" fill="#888"/><circle class="marker" cx="980.3" cy="66.1" r="3.5" fill="#888"/><circle class="marker" cx="1028.3" cy="65.8" r="3.5" fill="#888"/><circle class="marker" cx="1076.2" cy="65.5" r="3.5" fill="#888"/><circle class="marker" cx="1124.1" cy="65.5" r="3.5" fill="#888"/><circle class="marker" cx="1172.0" cy="65.5" r="3.5" fill="#888"/><path class="curve" d="M117.9,65.5 L165.8,65.5 L213.7,65.5 L261.7,65.5 L309.6,65.5 L357.5,65.5 L405.4,65.5 L453.3,65.5 L501.2,65.5 L549.1,65.5 L597.0,257.3 L645.0,117.7 L692.9,104.6 L740.8,67.9 L788.7,67.9 L836.6,67.0 L884.5,66.7 L932.4,66.1 L980.3,65.8 L1028.3,65.5 L1076.2,67.9 L1124.1,65.5 L1172.0,65.5" stroke="#3a7"/><circle class="marker" cx="117.9" cy="65.5" r="3.5" fill="#3a7"/><circle class="marker" cx="165.8" cy="65.5" r="3.5" fill="#3a7"/><circle class="marker" cx="213.7" cy="65.5" r="3.5" fill="#3a7"/><circle class="marker" cx="261.7" cy="65.5" r="3.5" fill="#3a7"/><circle class="marker" cx="309.6" cy="65.5" r="3.5" fill="#3a7"/><circle class="marker" cx="357.5" cy="65.5" r="3.5" fill="#3a7"/><circle class="marker" cx="405.4" cy="65.5" r="3.5" fill="#3a7"/><circle class="marker" cx="453.3" cy="65.5" r="3.5" fill="#3a7"/><circle class="marker" cx="501.2" cy="65.5" r="3.5" fill="#3a7"/><circle class="marker" cx="549.1" cy="65.5" r="3.5" fill="#3a7"/><circle class="marker" cx="597.0" cy="257.3" r="3.5" fill="#3a7"/><circle class="marker" cx="645.0" cy="117.7" r="3.5" fill="#3a7"/><circle class="marker" cx="692.9" cy="104.6" r="3.5" fill="#3a7"/><circle class="marker" cx="740.8" cy="67.9" r="3.5" fill="#3a7"/><circle class="marker" cx="788.7" cy="67.9" r="3.5" fill="#3a7"/><circle class="marker" cx="836.6" cy="67.0" r="3.5" fill="#3a7"/><circle class="marker" cx="884.5" cy="66.7" r="3.5" fill="#3a7"/><circle class="marker" cx="932.4" cy="66.1" r="3.5" fill="#3a7"/><circle class="marker" cx="980.3" cy="65.8" r="3.5" fill="#3a7"/><circle class="marker" cx="1028.3" cy="65.5" r="3.5" fill="#3a7"/><circle class="marker" cx="1076.2" cy="67.9" r="3.5" fill="#3a7"/><circle class="marker" cx="1124.1" cy="65.5" r="3.5" fill="#3a7"/><circle class="marker" cx="1172.0" cy="65.5" r="3.5" fill="#3a7"/><path class="curve" d="M117.9,60.4 L165.8,60.4 L213.7,60.4 L261.7,60.4 L309.6,60.4 L357.5,60.4 L405.4,60.4 L453.3,60.4 L501.2,60.4 L549.1,60.4 L597.0,60.4 L645.0,60.4 L692.9,60.4 L740.8,60.4 L788.7,60.4 L836.6,60.4 L884.5,60.4 L932.4,60.4 L980.3,60.4 L1028.3,60.4 L1076.2,60.4 L1124.1,60.4 L1172.0,60.4" stroke="#06c"/><circle class="marker" cx="117.9" cy="60.4" r="3.5" fill="#06c"/><circle class="marker" cx="165.8" cy="60.4" r="3.5" fill="#06c"/><circle class="marker" cx="213.7" cy="60.4" r="3.5" fill="#06c"/><circle class="marker" cx="261.7" cy="60.4" r="3.5" fill="#06c"/><circle class="marker" cx="309.6" cy="60.4" r="3.5" fill="#06c"/><circle class="marker" cx="357.5" cy="60.4" r="3.5" fill="#06c"/><circle class="marker" cx="405.4" cy="60.4" r="3.5" fill="#06c"/><circle class="marker" cx="453.3" cy="60.4" r="3.5" fill="#06c"/><circle class="marker" cx="501.2" cy="60.4" r="3.5" fill="#06c"/><circle class="marker" cx="549.1" cy="60.4" r="3.5" fill="#06c"/><circle class="marker" cx="597.0" cy="60.4" r="3.5" fill="#06c"/><circle class="marker" cx="645.0" cy="60.4" r="3.5" fill="#06c"/><circle class="marker" cx="692.9" cy="60.4" r="3.5" fill="#06c"/><circle class="marker" cx="740.8" cy="60.4" r="3.5" fill="#06c"/><circle class="marker" cx="788.7" cy="60.4" r="3.5" fill="#06c"/><circle class="marker" cx="836.6" cy="60.4" r="3.5" fill="#06c"/><circle class="marker" cx="884.5" cy="60.4" r="3.5" fill="#06c"/><circle class="marker" cx="932.4" cy="60.4" r="3.5" fill="#06c"/><circle class="marker" cx="980.3" cy="60.4" r="3.5" fill="#06c"/><circle class="marker" cx="1028.3" cy="60.4" r="3.5" fill="#06c"/><circle class="marker" cx="1076.2" cy="60.4" r="3.5" fill="#06c"/><circle class="marker" cx="1124.1" cy="60.4" r="3.5" fill="#06c"/><circle class="marker" cx="1172.0" cy="60.4" r="3.5" fill="#06c"/><line x1="1088.0" y1="12.0" x2="1106.0" y2="12.0" stroke="#06c" stroke-width="2.25" stroke-linecap="round"/><circle cx="1097.0" cy="12.0" r="3.5" fill="#06c" stroke="#fff" stroke-width="1"/><text class="legend-text" x="1112.0" y="16.0">ensemble</text><line x1="976.0" y1="12.0" x2="994.0" y2="12.0" stroke="#3a7" stroke-width="2.25" stroke-linecap="round"/><circle cx="985.0" cy="12.0" r="3.5" fill="#3a7" stroke="#fff" stroke-width="1"/><text class="legend-text" x="1000.0" y="16.0">specialist</text><line x1="885.0" y1="12.0" x2="903.0" y2="12.0" stroke="#888" stroke-width="2.25" stroke-linecap="round"/><circle cx="894.0" cy="12.0" r="3.5" fill="#888" stroke="#fff" stroke-width="1"/><text class="legend-text" x="909.0" y="16.0">general</text></svg>