<svg xmlns="http://www.w3.org/2000/svg" viewBox="0 0 1200 320" width="1200" height="320" preserveAspectRatio="xMidYMid meet" role="img" aria-label="shell: recall by FP level"><style>svg { background: #fdfdfd; }.frame { fill: #fff; stroke: #d8dde3; stroke-width: 1; }.grid { stroke: #eef0f3; stroke-width: 1; }.tick { stroke: #b8bfc7; stroke-width: 1; }.axis-label { fill: #5f6b78; font-family: -apple-system, BlinkMacSystemFont, "Segoe UI", system-ui, sans-serif; font-size: 12px; }.x-label { fill: #5f6b78; font-family: -apple-system, BlinkMacSystemFont, "Segoe UI", system-ui, sans-serif; font-size: 11px; }.axis-title { fill: #2d3540; font-family: -apple-system, BlinkMacSystemFont, "Segoe UI", system-ui, sans-serif; font-size: 12px; font-weight: 500; }.title { fill: #1a232e; font-family: -apple-system, BlinkMacSystemFont, "Segoe UI", system-ui, sans-serif; font-size: 14px; font-weight: 600; }.deploy-marker { stroke: #aab2bd; stroke-width: 1; stroke-dasharray: 5,4; }.deploy-label { fill: #6b7480; font-family: -apple-system, BlinkMacSystemFont, "Segoe UI", system-ui, sans-serif; font-size: 11px; font-style: italic; }.curve { fill: none; stroke-width: 2.25; stroke-linejoin: round; stroke-linecap: round; }.marker { stroke: #fff; stroke-width: 1; }.legend-text { fill: #2d3540; font-family: -apple-system, BlinkMacSystemFont, "Segoe UI", system-ui, sans-serif; font-size: 12px; font-weight: 500; }</style><text class="title" x="70" y="16">shell: recall by FP level</text><rect class="frame" x="70" y="24" width="1102" height="236"/><line class="grid" x1="70" y1="260.0" x2="1172" y2="260.0"/><text class="axis-label" x="60" y="264.0" text-anchor="end">0%</text><line class="grid" x1="70" y1="201.0" x2="1172" y2="201.0"/><text class="axis-label" x="60" y="205.0" text-anchor="end">25%</text><line class="grid" x1="70" y1="142.0" x2="1172" y2="142.0"/><text class="axis-label" x="60" y="146.0" text-anchor="end">50%</text><line class="grid" x1="70" y1="83.0" x2="1172" y2="83.0"/><text class="axis-label" x="60" y="87.0" text-anchor="end">75%</text><line class="grid" x1="70" y1="24.0" x2="1172" y2="24.0"/><text class="axis-label" x="60" y="28.0" text-anchor="end">100%</text><line class="deploy-marker" x1="311.9" y1="24" x2="311.9" y2="260"/><text class="deploy-label" x="315.9" y="36" text-anchor="start">deploy L25</text><line class="tick" x1="70.0" y1="260" x2="70.0" y2="264"/><text class="x-label" x="70.0" y="278" text-anchor="middle">L0</text><line class="tick" x1="96.9" y1="260" x2="96.9" y2="264"/><text class="x-label" x="96.9" y="278" text-anchor="middle">L1</text><line class="tick" x1="123.8" y1="260" x2="123.8" y2="264"/><text class="x-label" x="123.8" y="278" text-anchor="middle">L2</text><line class="tick" x1="150.6" y1="260" x2="150.6" y2="264"/><text class="x-label" x="150.6" y="278" text-anchor="middle">L3</text><line class="tick" x1="177.5" y1="260" x2="177.5" y2="264"/><text class="x-label" x="177.5" y="278" text-anchor="middle">L4</text><line class="tick" x1="204.4" y1="260" x2="204.4" y2="264"/><text class="x-label" x="204.4" y="278" text-anchor="middle">L5</text><line class="tick" x1="231.3" y1="260" x2="231.3" y2="264"/><text class="x-label" x="231.3" y="278" text-anchor="middle">L10</text><line class="tick" x1="258.1" y1="260" x2="258.1" y2="264"/><text class="x-label" x="258.1" y="278" text-anchor="middle">L15</text><line class="tick" x1="285.0" y1="260" x2="285.0" y2="264"/><text class="x-label" x="285.0" y="278" text-anchor="middle">L20</text><line class="tick" x1="311.9" y1="260" x2="311.9" y2="264"/><text class="x-label" x="311.9" y="278" text-anchor="middle">L25</text><line class="tick" x1="338.8" y1="260" x2="338.8" y2="264"/><text class="x-label" x="338.8" y="278" text-anchor="middle">L30</text><line class="tick" x1="365.7" y1="260" x2="365.7" y2="264"/><text class="x-label" x="365.7" y="278" text-anchor="middle">L40</text><line class="tick" x1="392.5" y1="260" x2="392.5" y2="264"/><text class="x-label" x="392.5" y="278" text-anchor="middle">L50</text><line class="tick" x1="419.4" y1="260" x2="419.4" y2="264"/><text class="x-label" x="419.4" y="278" text-anchor="middle">L60</text><line class="tick" x1="446.3" y1="260" x2="446.3" y2="264"/><text class="x-label" x="446.3" y="278" text-anchor="middle">L70</text><line class="tick" x1="473.2" y1="260" x2="473.2" y2="264"/><text class="x-label" x="473.2" y="278" text-anchor="middle">L80</text><line class="tick" x1="500.0" y1="260" x2="500.0" y2="264"/><text class="x-label" x="500.0" y="278" text-anchor="middle">L90</text><line class="tick" x1="526.9" y1="260" x2="526.9" y2="264"/><text class="x-label" x="526.9" y="278" text-anchor="middle">L100</text><line class="tick" x1="553.8" y1="260" x2="553.8" y2="264"/><text class="x-label" x="553.8" y="278" text-anchor="middle">L125</text><line class="tick" x1="580.7" y1="260" x2="580.7" y2="264"/><text class="x-label" x="580.7" y="278" text-anchor="middle">L150</text><line class="tick" x1="607.6" y1="260" x2="607.6" y2="264"/><text class="x-label" x="607.6" y="278" text-anchor="middle">L175</text><line class="tick" x1="634.4" y1="260" x2="634.4" y2="264"/><text class="x-label" x="634.4" y="278" text-anchor="middle">L200</text><line class="tick" x1="661.3" y1="260" x2="661.3" y2="264"/><text class="x-label" x="661.3" y="278" text-anchor="middle">L250</text><line class="tick" x1="688.2" y1="260" x2="688.2" y2="264"/><text class="x-label" x="688.2" y="278" text-anchor="middle">L300</text><line class="tick" x1="715.1" y1="260" x2="715.1" y2="264"/><text class="x-label" x="715.1" y="278" text-anchor="middle">L500</text><line class="tick" x1="742.0" y1="260" x2="742.0" y2="264"/><text class="x-label" x="742.0" y="278" text-anchor="middle">L750</text><line class="tick" x1="768.8" y1="260" x2="768.8" y2="264"/><text class="x-label" x="768.8" y="278" text-anchor="middle">L1000</text><line class="tick" x1="795.7" y1="260" x2="795.7" y2="264"/><text class="x-label" x="795.7" y="278" text-anchor="middle">L1250</text><line class="tick" x1="822.6" y1="260" x2="822.6" y2="264"/><text class="x-label" x="822.6" y="278" text-anchor="middle">L1500</text><line class="tick" x1="849.5" y1="260" x2="849.5" y2="264"/><text class="x-label" x="849.5" y="278" text-anchor="middle">L1750</text><line class="tick" x1="876.3" y1="260" x2="876.3" y2="264"/><text class="x-label" x="876.3" y="278" text-anchor="middle">L2000</text><line class="tick" x1="903.2" y1="260" x2="903.2" y2="264"/><text class="x-label" x="903.2" y="278" text-anchor="middle">L2250</text><line class="tick" x1="930.1" y1="260" x2="930.1" y2="264"/><text class="x-label" x="930.1" y="278" text-anchor="middle">L2500</text><line class="tick" x1="957.0" y1="260" x2="957.0" y2="264"/><text class="x-label" x="957.0" y="278" text-anchor="middle">L3000</text><line class="tick" x1="983.9" y1="260" x2="983.9" y2="264"/><text class="x-label" x="983.9" y="278" text-anchor="middle">L4000</text><line class="tick" x1="1010.7" y1="260" x2="1010.7" y2="264"/><text class="x-label" x="1010.7" y="278" text-anchor="middle">L5000</text><line class="tick" x1="1037.6" y1="260" x2="1037.6" y2="264"/><text class="x-label" x="1037.6" y="278" text-anchor="middle">L6000</text><line class="tick" x1="1064.5" y1="260" x2="1064.5" y2="264"/><text class="x-label" x="1064.5" y="278" text-anchor="middle">L7500</text><line class="tick" x1="1091.4" y1="260" x2="1091.4" y2="264"/><text class="x-label" x="1091.4" y="278" text-anchor="middle">L10000</text><line class="tick" x1="1118.2" y1="260" x2="1118.2" y2="264"/><text class="x-label" x="1118.2" y="278" text-anchor="middle">L15000</text><line class="tick" x1="1145.1" y1="260" x2="1145.1" y2="264"/><text class="x-label" x="1145.1" y="278" text-anchor="middle">L20000</text><line class="tick" x1="1172.0" y1="260" x2="1172.0" y2="264"/><text class="x-label" x="1172.0" y="278" text-anchor="middle">L25000</text><text class="axis-title" x="621.0" y="304" text-anchor="middle">Severity level (FP per 100M benigns)</text><path class="curve" d="M96.9,200.2 L123.8,200.2 L150.6,200.2 L177.5,200.2 L204.4,200.2 L231.3,200.2 L258.1,200.2 L285.0,200.2 L311.9,200.2 L338.8,200.2 L365.7,200.2 L392.5,200.2 L419.4,200.2 L446.3,200.2 L473.2,200.2 L500.0,200.2 L526.9,200.2 L553.8,200.2 L580.7,200.2 L607.6,200.2 L634.4,200.2 L661.3,200.2 L688.2,200.2 L715.1,200.2 L742.0,199.7 L768.8,199.4 L795.7,199.2 L822.6,199.0 L849.5,198.8 L876.3,198.8 L903.2,198.7 L930.1,198.7 L957.0,198.2 L983.9,198.0 L1010.7,197.0 L1037.6,189.5 L1064.5,182.0 L1091.4,143.4 L1118.2,109.3 L1145.1,108.5 L1172.0,105.8" stroke="#888"/><circle class="marker" cx="96.9" cy="200.2" r="3.5" fill="#888"/><circle class="marker" cx="123.8" cy="200.2" r="3.5" fill="#888"/><circle class="marker" cx="150.6" cy="200.2" r="3.5" fill="#888"/><circle class="marker" cx="177.5" cy="200.2" r="3.5" fill="#888"/><circle class="marker" cx="204.4" cy="200.2" r="3.5" fill="#888"/><circle class="marker" cx="231.3" cy="200.2" r="3.5" fill="#888"/><circle class="marker" cx="258.1" cy="200.2" r="3.5" fill="#888"/><circle class="marker" cx="285.0" cy="200.2" r="3.5" fill="#888"/><circle class="marker" cx="311.9" cy="200.2" r="3.5" fill="#888"/><circle class="marker" cx="338.8" cy="200.2" r="3.5" fill="#888"/><circle class="marker" cx="365.7" cy="200.2" r="3.5" fill="#888"/><circle class="marker" cx="392.5" cy="200.2" r="3.5" fill="#888"/><circle class="marker" cx="419.4" cy="200.2" r="3.5" fill="#888"/><circle class="marker" cx="446.3" cy="200.2" r="3.5" fill="#888"/><circle class="marker" cx="473.2" cy="200.2" r="3.5" fill="#888"/><circle class="marker" cx="500.0" cy="200.2" r="3.5" fill="#888"/><circle class="marker" cx="526.9" cy="200.2" r="3.5" fill="#888"/><circle class="marker" cx="553.8" cy="200.2" r="3.5" fill="#888"/><circle class="marker" cx="580.7" cy="200.2" r="3.5" fill="#888"/><circle class="marker" cx="607.6" cy="200.2" r="3.5" fill="#888"/><circle class="marker" cx="634.4" cy="200.2" r="3.5" fill="#888"/><circle class="marker" cx="661.3" cy="200.2" r="3.5" fill="#888"/><circle class="marker" cx="688.2" cy="200.2" r="3.5" fill="#888"/><circle class="marker" cx="715.1" cy="200.2" r="3.5" fill="#888"/><circle class="marker" cx="742.0" cy="199.7" r="3.5" fill="#888"/><circle class="marker" cx="768.8" cy="199.4" r="3.5" fill="#888"/><circle class="marker" cx="795.7" cy="199.2" r="3.5" fill="#888"/><circle class="marker" cx="822.6" cy="199.0" r="3.5" fill="#888"/><circle class="marker" cx="849.5" cy="198.8" r="3.5" fill="#888"/><circle class="marker" cx="876.3" cy="198.8" r="3.5" fill="#888"/><circle class="marker" cx="903.2" cy="198.7" r="3.5" fill="#888"/><circle class="marker" cx="930.1" cy="198.7" r="3.5" fill="#888"/><circle class="marker" cx="957.0" cy="198.2" r="3.5" fill="#888"/><circle class="marker" cx="983.9" cy="198.0" r="3.5" fill="#888"/><circle class="marker" cx="1010.7" cy="197.0" r="3.5" fill="#888"/><circle class="marker" cx="1037.6" cy="189.5" r="3.5" fill="#888"/><circle class="marker" cx="1064.5" cy="182.0" r="3.5" fill="#888"/><circle class="marker" cx="1091.4" cy="143.4" r="3.5" fill="#888"/><circle class="marker" cx="1118.2" cy="109.3" r="3.5" fill="#888"/><circle class="marker" cx="1145.1" cy="108.5" r="3.5" fill="#888"/><circle class="marker" cx="1172.0" cy="105.8" r="3.5" fill="#888"/><path class="curve" d="M96.9,139.5 L123.8,139.5 L150.6,139.5 L177.5,139.5 L204.4,139.5 L231.3,139.5 L258.1,139.5 L285.0,139.5 L311.9,139.5 L338.8,139.5 L365.7,139.4 L392.5,139.3 L419.4,139.3 L446.3,139.3 L473.2,139.3 L500.0,139.3 L526.9,139.3 L553.8,139.3 L580.7,139.3 L607.6,139.2 L634.4,139.1 L661.3,138.8 L688.2,138.8 L715.1,138.2 L742.0,137.7 L768.8,137.0 L795.7,135.8 L822.6,134.9 L849.5,134.5 L876.3,134.4 L903.2,133.9 L930.1,133.0 L957.0,117.7 L983.9,104.0 L1010.7,100.9 L1037.6,99.9 L1064.5,99.6 L1091.4,98.1 L1118.2,93.5 L1145.1,92.7 L1172.0,91.3" stroke="#3a7"/><circle class="marker" cx="96.9" cy="139.5" r="3.5" fill="#3a7"/><circle class="marker" cx="123.8" cy="139.5" r="3.5" fill="#3a7"/><circle class="marker" cx="150.6" cy="139.5" r="3.5" fill="#3a7"/><circle class="marker" cx="177.5" cy="139.5" r="3.5" fill="#3a7"/><circle class="marker" cx="204.4" cy="139.5" r="3.5" fill="#3a7"/><circle class="marker" cx="231.3" cy="139.5" r="3.5" fill="#3a7"/><circle class="marker" cx="258.1" cy="139.5" r="3.5" fill="#3a7"/><circle class="marker" cx="285.0" cy="139.5" r="3.5" fill="#3a7"/><circle class="marker" cx="311.9" cy="139.5" r="3.5" fill="#3a7"/><circle class="marker" cx="338.8" cy="139.5" r="3.5" fill="#3a7"/><circle class="marker" cx="365.7" cy="139.4" r="3.5" fill="#3a7"/><circle class="marker" cx="392.5" cy="139.3" r="3.5" fill="#3a7"/><circle class="marker" cx="419.4" cy="139.3" r="3.5" fill="#3a7"/><circle class="marker" cx="446.3" cy="139.3" r="3.5" fill="#3a7"/><circle class="marker" cx="473.2" cy="139.3" r="3.5" fill="#3a7"/><circle class="marker" cx="500.0" cy="139.3" r="3.5" fill="#3a7"/><circle class="marker" cx="526.9" cy="139.3" r="3.5" fill="#3a7"/><circle class="marker" cx="553.8" cy="139.3" r="3.5" fill="#3a7"/><circle class="marker" cx="580.7" cy="139.3" r="3.5" fill="#3a7"/><circle class="marker" cx="607.6" cy="139.2" r="3.5" fill="#3a7"/><circle class="marker" cx="634.4" cy="139.1" r="3.5" fill="#3a7"/><circle class="marker" cx="661.3" cy="138.8" r="3.5" fill="#3a7"/><circle class="marker" cx="688.2" cy="138.8" r="3.5" fill="#3a7"/><circle class="marker" cx="715.1" cy="138.2" r="3.5" fill="#3a7"/><circle class="marker" cx="742.0" cy="137.7" r="3.5" fill="#3a7"/><circle class="marker" cx="768.8" cy="137.0" r="3.5" fill="#3a7"/><circle class="marker" cx="795.7" cy="135.8" r="3.5" fill="#3a7"/><circle class="marker" cx="822.6" cy="134.9" r="3.5" fill="#3a7"/><circle class="marker" cx="849.5" cy="134.5" r="3.5" fill="#3a7"/><circle class="marker" cx="876.3" cy="134.4" r="3.5" fill="#3a7"/><circle class="marker" cx="903.2" cy="133.9" r="3.5" fill="#3a7"/><circle class="marker" cx="930.1" cy="133.0" r="3.5" fill="#3a7"/><circle class="marker" cx="957.0" cy="117.7" r="3.5" fill="#3a7"/><circle class="marker" cx="983.9" cy="104.0" r="3.5" fill="#3a7"/><circle class="marker" cx="1010.7" cy="100.9" r="3.5" fill="#3a7"/><circle class="marker" cx="1037.6" cy="99.9" r="3.5" fill="#3a7"/><circle class="marker" cx="1064.5" cy="99.6" r="3.5" fill="#3a7"/><circle class="marker" cx="1091.4" cy="98.1" r="3.5" fill="#3a7"/><circle class="marker" cx="1118.2" cy="93.5" r="3.5" fill="#3a7"/><circle class="marker" cx="1145.1" cy="92.7" r="3.5" fill="#3a7"/><circle class="marker" cx="1172.0" cy="91.3" r="3.5" fill="#3a7"/><path class="curve" d="M96.9,132.4 L123.8,132.4 L150.6,132.4 L177.5,132.4 L204.4,132.4 L231.3,132.4 L258.1,132.4 L285.0,132.4 L311.9,132.4 L338.8,132.4 L365.7,132.4 L392.5,132.4 L419.4,132.4 L446.3,132.4 L473.2,132.4 L500.0,132.4 L526.9,132.4 L553.8,132.4 L580.7,132.4 L607.6,132.4 L634.4,132.4 L661.3,132.4 L688.2,132.4 L715.1,132.4 L742.0,132.4 L768.8,132.4 L795.7,132.4 L822.6,132.4 L849.5,132.4 L876.3,132.4 L903.2,132.4 L930.1,132.4 L957.0,132.4 L983.9,128.1 L1010.7,97.5 L1037.6,97.0 L1064.5,97.0 L1091.4,95.7 L1118.2,93.8 L1145.1,93.5 L1172.0,93.3" stroke="#06c"/><circle class="marker" cx="96.9" cy="132.4" r="3.5" fill="#06c"/><circle class="marker" cx="123.8" cy="132.4" r="3.5" fill="#06c"/><circle class="marker" cx="150.6" cy="132.4" r="3.5" fill="#06c"/><circle class="marker" cx="177.5" cy="132.4" r="3.5" fill="#06c"/><circle class="marker" cx="204.4" cy="132.4" r="3.5" fill="#06c"/><circle class="marker" cx="231.3" cy="132.4" r="3.5" fill="#06c"/><circle class="marker" cx="258.1" cy="132.4" r="3.5" fill="#06c"/><circle class="marker" cx="285.0" cy="132.4" r="3.5" fill="#06c"/><circle class="marker" cx="311.9" cy="132.4" r="3.5" fill="#06c"/><circle class="marker" cx="338.8" cy="132.4" r="3.5" fill="#06c"/><circle class="marker" cx="365.7" cy="132.4" r="3.5" fill="#06c"/><circle class="marker" cx="392.5" cy="132.4" r="3.5" fill="#06c"/><circle class="marker" cx="419.4" cy="132.4" r="3.5" fill="#06c"/><circle class="marker" cx="446.3" cy="132.4" r="3.5" fill="#06c"/><circle class="marker" cx="473.2" cy="132.4" r="3.5" fill="#06c"/><circle class="marker" cx="500.0" cy="132.4" r="3.5" fill="#06c"/><circle class="marker" cx="526.9" cy="132.4" r="3.5" fill="#06c"/><circle class="marker" cx="553.8" cy="132.4" r="3.5" fill="#06c"/><circle class="marker" cx="580.7" cy="132.4" r="3.5" fill="#06c"/><circle class="marker" cx="607.6" cy="132.4" r="3.5" fill="#06c"/><circle class="marker" cx="634.4" cy="132.4" r="3.5" fill="#06c"/><circle class="marker" cx="661.3" cy="132.4" r="3.5" fill="#06c"/><circle class="marker" cx="688.2" cy="132.4" r="3.5" fill="#06c"/><circle class="marker" cx="715.1" cy="132.4" r="3.5" fill="#06c"/><circle class="marker" cx="742.0" cy="132.4" r="3.5" fill="#06c"/><circle class="marker" cx="768.8" cy="132.4" r="3.5" fill="#06c"/><circle class="marker" cx="795.7" cy="132.4" r="3.5" fill="#06c"/><circle class="marker" cx="822.6" cy="132.4" r="3.5" fill="#06c"/><circle class="marker" cx="849.5" cy="132.4" r="3.5" fill="#06c"/><circle class="marker" cx="876.3" cy="132.4" r="3.5" fill="#06c"/><circle class="marker" cx="903.2" cy="132.4" r="3.5" fill="#06c"/><circle class="marker" cx="930.1" cy="132.4" r="3.5" fill="#06c"/><circle class="marker" cx="957.0" cy="132.4" r="3.5" fill="#06c"/><circle class="marker" cx="983.9" cy="128.1" r="3.5" fill="#06c"/><circle class="marker" cx="1010.7" cy="97.5" r="3.5" fill="#06c"/><circle class="marker" cx="1037.6" cy="97.0" r="3.5" fill="#06c"/><circle class="marker" cx="1064.5" cy="97.0" r="3.5" fill="#06c"/><circle class="marker" cx="1091.4" cy="95.7" r="3.5" fill="#06c"/><circle class="marker" cx="1118.2" cy="93.8" r="3.5" fill="#06c"/><circle class="marker" cx="1145.1" cy="93.5" r="3.5" fill="#06c"/><circle class="marker" cx="1172.0" cy="93.3" r="3.5" fill="#06c"/><line x1="1088.0" y1="12.0" x2="1106.0" y2="12.0" stroke="#06c" stroke-width="2.25" stroke-linecap="round"/><circle cx="1097.0" cy="12.0" r="3.5" fill="#06c" stroke="#fff" stroke-width="1"/><text class="legend-text" x="1112.0" y="16.0">ensemble</text><line x1="976.0" y1="12.0" x2="994.0" y2="12.0" stroke="#3a7" stroke-width="2.25" stroke-linecap="round"/><circle cx="985.0" cy="12.0" r="3.5" fill="#3a7" stroke="#fff" stroke-width="1"/><text class="legend-text" x="1000.0" y="16.0">specialist</text><line x1="885.0" y1="12.0" x2="903.0" y2="12.0" stroke="#888" stroke-width="2.25" stroke-linecap="round"/><circle cx="894.0" cy="12.0" r="3.5" fill="#888" stroke="#fff" stroke-width="1"/><text class="legend-text" x="909.0" y="16.0">general</text></svg>