<svg xmlns="http://www.w3.org/2000/svg" viewBox="0 0 1200 320" width="1200" height="320" preserveAspectRatio="xMidYMid meet" role="img" aria-label="pe: recall by FP level"><style>svg { background: #fdfdfd; }.frame { fill: #fff; stroke: #d8dde3; stroke-width: 1; }.grid { stroke: #eef0f3; stroke-width: 1; }.tick { stroke: #b8bfc7; stroke-width: 1; }.axis-label { fill: #5f6b78; font-family: -apple-system, BlinkMacSystemFont, "Segoe UI", system-ui, sans-serif; font-size: 12px; }.x-label { fill: #5f6b78; font-family: -apple-system, BlinkMacSystemFont, "Segoe UI", system-ui, sans-serif; font-size: 11px; }.axis-title { fill: #2d3540; font-family: -apple-system, BlinkMacSystemFont, "Segoe UI", system-ui, sans-serif; font-size: 12px; font-weight: 500; }.title { fill: #1a232e; font-family: -apple-system, BlinkMacSystemFont, "Segoe UI", system-ui, sans-serif; font-size: 14px; font-weight: 600; }.deploy-marker { stroke: #aab2bd; stroke-width: 1; stroke-dasharray: 5,4; }.deploy-label { fill: #6b7480; font-family: -apple-system, BlinkMacSystemFont, "Segoe UI", system-ui, sans-serif; font-size: 11px; font-style: italic; }.curve { fill: none; stroke-width: 2.25; stroke-linejoin: round; stroke-linecap: round; }.marker { stroke: #fff; stroke-width: 1; }.legend-text { fill: #2d3540; font-family: -apple-system, BlinkMacSystemFont, "Segoe UI", system-ui, sans-serif; font-size: 12px; font-weight: 500; }</style><text class="title" x="70" y="16">pe: recall by FP level</text><rect class="frame" x="70" y="24" width="1102" height="236"/><line class="grid" x1="70" y1="260.0" x2="1172" y2="260.0"/><text class="axis-label" x="60" y="264.0" text-anchor="end">0%</text><line class="grid" x1="70" y1="201.0" x2="1172" y2="201.0"/><text class="axis-label" x="60" y="205.0" text-anchor="end">25%</text><line class="grid" x1="70" y1="142.0" x2="1172" y2="142.0"/><text class="axis-label" x="60" y="146.0" text-anchor="end">50%</text><line class="grid" x1="70" y1="83.0" x2="1172" y2="83.0"/><text class="axis-label" x="60" y="87.0" text-anchor="end">75%</text><line class="grid" x1="70" y1="24.0" x2="1172" y2="24.0"/><text class="axis-label" x="60" y="28.0" text-anchor="end">100%</text><line class="deploy-marker" x1="311.9" y1="24" x2="311.9" y2="260"/><text class="deploy-label" x="315.9" y="36" text-anchor="start">deploy L25</text><line class="tick" x1="70.0" y1="260" x2="70.0" y2="264"/><text class="x-label" x="70.0" y="278" text-anchor="middle">L0</text><line class="tick" x1="96.9" y1="260" x2="96.9" y2="264"/><text class="x-label" x="96.9" y="278" text-anchor="middle">L1</text><line class="tick" x1="123.8" y1="260" x2="123.8" y2="264"/><text class="x-label" x="123.8" y="278" text-anchor="middle">L2</text><line class="tick" x1="150.6" y1="260" x2="150.6" y2="264"/><text class="x-label" x="150.6" y="278" text-anchor="middle">L3</text><line class="tick" x1="177.5" y1="260" x2="177.5" y2="264"/><text class="x-label" x="177.5" y="278" text-anchor="middle">L4</text><line class="tick" x1="204.4" y1="260" x2="204.4" y2="264"/><text class="x-label" x="204.4" y="278" text-anchor="middle">L5</text><line class="tick" x1="231.3" y1="260" x2="231.3" y2="264"/><text class="x-label" x="231.3" y="278" text-anchor="middle">L10</text><line class="tick" x1="258.1" y1="260" x2="258.1" y2="264"/><text class="x-label" x="258.1" y="278" text-anchor="middle">L15</text><line class="tick" x1="285.0" y1="260" x2="285.0" y2="264"/><text class="x-label" x="285.0" y="278" text-anchor="middle">L20</text><line class="tick" x1="311.9" y1="260" x2="311.9" y2="264"/><text class="x-label" x="311.9" y="278" text-anchor="middle">L25</text><line class="tick" x1="338.8" y1="260" x2="338.8" y2="264"/><text class="x-label" x="338.8" y="278" text-anchor="middle">L30</text><line class="tick" x1="365.7" y1="260" x2="365.7" y2="264"/><text class="x-label" x="365.7" y="278" text-anchor="middle">L40</text><line class="tick" x1="392.5" y1="260" x2="392.5" y2="264"/><text class="x-label" x="392.5" y="278" text-anchor="middle">L50</text><line class="tick" x1="419.4" y1="260" x2="419.4" y2="264"/><text class="x-label" x="419.4" y="278" text-anchor="middle">L60</text><line class="tick" x1="446.3" y1="260" x2="446.3" y2="264"/><text class="x-label" x="446.3" y="278" text-anchor="middle">L70</text><line class="tick" x1="473.2" y1="260" x2="473.2" y2="264"/><text class="x-label" x="473.2" y="278" text-anchor="middle">L80</text><line class="tick" x1="500.0" y1="260" x2="500.0" y2="264"/><text class="x-label" x="500.0" y="278" text-anchor="middle">L90</text><line class="tick" x1="526.9" y1="260" x2="526.9" y2="264"/><text class="x-label" x="526.9" y="278" text-anchor="middle">L100</text><line class="tick" x1="553.8" y1="260" x2="553.8" y2="264"/><text class="x-label" x="553.8" y="278" text-anchor="middle">L125</text><line class="tick" x1="580.7" y1="260" x2="580.7" y2="264"/><text class="x-label" x="580.7" y="278" text-anchor="middle">L150</text><line class="tick" x1="607.6" y1="260" x2="607.6" y2="264"/><text class="x-label" x="607.6" y="278" text-anchor="middle">L175</text><line class="tick" x1="634.4" y1="260" x2="634.4" y2="264"/><text class="x-label" x="634.4" y="278" text-anchor="middle">L200</text><line class="tick" x1="661.3" y1="260" x2="661.3" y2="264"/><text class="x-label" x="661.3" y="278" text-anchor="middle">L250</text><line class="tick" x1="688.2" y1="260" x2="688.2" y2="264"/><text class="x-label" x="688.2" y="278" text-anchor="middle">L300</text><line class="tick" x1="715.1" y1="260" x2="715.1" y2="264"/><text class="x-label" x="715.1" y="278" text-anchor="middle">L500</text><line class="tick" x1="742.0" y1="260" x2="742.0" y2="264"/><text class="x-label" x="742.0" y="278" text-anchor="middle">L750</text><line class="tick" x1="768.8" y1="260" x2="768.8" y2="264"/><text class="x-label" x="768.8" y="278" text-anchor="middle">L1000</text><line class="tick" x1="795.7" y1="260" x2="795.7" y2="264"/><text class="x-label" x="795.7" y="278" text-anchor="middle">L1250</text><line class="tick" x1="822.6" y1="260" x2="822.6" y2="264"/><text class="x-label" x="822.6" y="278" text-anchor="middle">L1500</text><line class="tick" x1="849.5" y1="260" x2="849.5" y2="264"/><text class="x-label" x="849.5" y="278" text-anchor="middle">L1750</text><line class="tick" x1="876.3" y1="260" x2="876.3" y2="264"/><text class="x-label" x="876.3" y="278" text-anchor="middle">L2000</text><line class="tick" x1="903.2" y1="260" x2="903.2" y2="264"/><text class="x-label" x="903.2" y="278" text-anchor="middle">L2250</text><line class="tick" x1="930.1" y1="260" x2="930.1" y2="264"/><text class="x-label" x="930.1" y="278" text-anchor="middle">L2500</text><line class="tick" x1="957.0" y1="260" x2="957.0" y2="264"/><text class="x-label" x="957.0" y="278" text-anchor="middle">L3000</text><line class="tick" x1="983.9" y1="260" x2="983.9" y2="264"/><text class="x-label" x="983.9" y="278" text-anchor="middle">L4000</text><line class="tick" x1="1010.7" y1="260" x2="1010.7" y2="264"/><text class="x-label" x="1010.7" y="278" text-anchor="middle">L5000</text><line class="tick" x1="1037.6" y1="260" x2="1037.6" y2="264"/><text class="x-label" x="1037.6" y="278" text-anchor="middle">L6000</text><line class="tick" x1="1064.5" y1="260" x2="1064.5" y2="264"/><text class="x-label" x="1064.5" y="278" text-anchor="middle">L7500</text><line class="tick" x1="1091.4" y1="260" x2="1091.4" y2="264"/><text class="x-label" x="1091.4" y="278" text-anchor="middle">L10000</text><line class="tick" x1="1118.2" y1="260" x2="1118.2" y2="264"/><text class="x-label" x="1118.2" y="278" text-anchor="middle">L15000</text><line class="tick" x1="1145.1" y1="260" x2="1145.1" y2="264"/><text class="x-label" x="1145.1" y="278" text-anchor="middle">L20000</text><line class="tick" x1="1172.0" y1="260" x2="1172.0" y2="264"/><text class="x-label" x="1172.0" y="278" text-anchor="middle">L25000</text><text class="axis-title" x="621.0" y="304" text-anchor="middle">Severity level (FP per 100M benigns)</text><path class="curve" d="M96.9,196.8 L123.8,196.8 L150.6,196.8 L177.5,196.8 L204.4,196.8 L231.3,196.8 L258.1,196.7 L285.0,196.7 L311.9,196.7 L338.8,196.6 L365.7,196.6 L392.5,196.5 L419.4,196.4 L446.3,196.4 L473.2,196.3 L500.0,196.2 L526.9,196.1 L553.8,195.9 L580.7,195.7 L607.6,195.4 L634.4,195.2 L661.3,194.8 L688.2,194.3 L715.1,192.9 L742.0,190.6 L768.8,188.6 L795.7,187.2 L822.6,185.3 L849.5,183.9 L876.3,182.3 L903.2,181.1 L930.1,179.2 L957.0,172.7 L983.9,167.8 L1010.7,164.2 L1037.6,161.3 L1064.5,158.2 L1091.4,155.3 L1118.2,143.0 L1145.1,131.4 L1172.0,127.4" stroke="#888"/><circle class="marker" cx="96.9" cy="196.8" r="3.5" fill="#888"/><circle class="marker" cx="123.8" cy="196.8" r="3.5" fill="#888"/><circle class="marker" cx="150.6" cy="196.8" r="3.5" fill="#888"/><circle class="marker" cx="177.5" cy="196.8" r="3.5" fill="#888"/><circle class="marker" cx="204.4" cy="196.8" r="3.5" fill="#888"/><circle class="marker" cx="231.3" cy="196.8" r="3.5" fill="#888"/><circle class="marker" cx="258.1" cy="196.7" r="3.5" fill="#888"/><circle class="marker" cx="285.0" cy="196.7" r="3.5" fill="#888"/><circle class="marker" cx="311.9" cy="196.7" r="3.5" fill="#888"/><circle class="marker" cx="338.8" cy="196.6" r="3.5" fill="#888"/><circle class="marker" cx="365.7" cy="196.6" r="3.5" fill="#888"/><circle class="marker" cx="392.5" cy="196.5" r="3.5" fill="#888"/><circle class="marker" cx="419.4" cy="196.4" r="3.5" fill="#888"/><circle class="marker" cx="446.3" cy="196.4" r="3.5" fill="#888"/><circle class="marker" cx="473.2" cy="196.3" r="3.5" fill="#888"/><circle class="marker" cx="500.0" cy="196.2" r="3.5" fill="#888"/><circle class="marker" cx="526.9" cy="196.1" r="3.5" fill="#888"/><circle class="marker" cx="553.8" cy="195.9" r="3.5" fill="#888"/><circle class="marker" cx="580.7" cy="195.7" r="3.5" fill="#888"/><circle class="marker" cx="607.6" cy="195.4" r="3.5" fill="#888"/><circle class="marker" cx="634.4" cy="195.2" r="3.5" fill="#888"/><circle class="marker" cx="661.3" cy="194.8" r="3.5" fill="#888"/><circle class="marker" cx="688.2" cy="194.3" r="3.5" fill="#888"/><circle class="marker" cx="715.1" cy="192.9" r="3.5" fill="#888"/><circle class="marker" cx="742.0" cy="190.6" r="3.5" fill="#888"/><circle class="marker" cx="768.8" cy="188.6" r="3.5" fill="#888"/><circle class="marker" cx="795.7" cy="187.2" r="3.5" fill="#888"/><circle class="marker" cx="822.6" cy="185.3" r="3.5" fill="#888"/><circle class="marker" cx="849.5" cy="183.9" r="3.5" fill="#888"/><circle class="marker" cx="876.3" cy="182.3" r="3.5" fill="#888"/><circle class="marker" cx="903.2" cy="181.1" r="3.5" fill="#888"/><circle class="marker" cx="930.1" cy="179.2" r="3.5" fill="#888"/><circle class="marker" cx="957.0" cy="172.7" r="3.5" fill="#888"/><circle class="marker" cx="983.9" cy="167.8" r="3.5" fill="#888"/><circle class="marker" cx="1010.7" cy="164.2" r="3.5" fill="#888"/><circle class="marker" cx="1037.6" cy="161.3" r="3.5" fill="#888"/><circle class="marker" cx="1064.5" cy="158.2" r="3.5" fill="#888"/><circle class="marker" cx="1091.4" cy="155.3" r="3.5" fill="#888"/><circle class="marker" cx="1118.2" cy="143.0" r="3.5" fill="#888"/><circle class="marker" cx="1145.1" cy="131.4" r="3.5" fill="#888"/><circle class="marker" cx="1172.0" cy="127.4" r="3.5" fill="#888"/><path class="curve" d="M96.9,121.4 L123.8,121.4 L150.6,121.4 L177.5,121.4 L204.4,121.4 L231.3,121.4 L258.1,121.4 L285.0,121.4 L311.9,121.4 L338.8,121.4 L365.7,121.4 L392.5,121.3 L419.4,121.3 L446.3,121.3 L473.2,121.2 L500.0,121.2 L526.9,121.2 L553.8,121.1 L580.7,121.0 L607.6,121.0 L634.4,120.9 L661.3,120.8 L688.2,120.7 L715.1,120.1 L742.0,119.6 L768.8,118.6 L795.7,118.2 L822.6,117.7 L849.5,117.3 L876.3,116.8 L903.2,116.3 L930.1,115.8 L957.0,115.1 L983.9,113.8 L1010.7,112.3 L1037.6,111.0 L1064.5,109.3 L1091.4,108.4 L1118.2,104.4 L1145.1,99.1 L1172.0,93.6" stroke="#3a7"/><circle class="marker" cx="96.9" cy="121.4" r="3.5" fill="#3a7"/><circle class="marker" cx="123.8" cy="121.4" r="3.5" fill="#3a7"/><circle class="marker" cx="150.6" cy="121.4" r="3.5" fill="#3a7"/><circle class="marker" cx="177.5" cy="121.4" r="3.5" fill="#3a7"/><circle class="marker" cx="204.4" cy="121.4" r="3.5" fill="#3a7"/><circle class="marker" cx="231.3" cy="121.4" r="3.5" fill="#3a7"/><circle class="marker" cx="258.1" cy="121.4" r="3.5" fill="#3a7"/><circle class="marker" cx="285.0" cy="121.4" r="3.5" fill="#3a7"/><circle class="marker" cx="311.9" cy="121.4" r="3.5" fill="#3a7"/><circle class="marker" cx="338.8" cy="121.4" r="3.5" fill="#3a7"/><circle class="marker" cx="365.7" cy="121.4" r="3.5" fill="#3a7"/><circle class="marker" cx="392.5" cy="121.3" r="3.5" fill="#3a7"/><circle class="marker" cx="419.4" cy="121.3" r="3.5" fill="#3a7"/><circle class="marker" cx="446.3" cy="121.3" r="3.5" fill="#3a7"/><circle class="marker" cx="473.2" cy="121.2" r="3.5" fill="#3a7"/><circle class="marker" cx="500.0" cy="121.2" r="3.5" fill="#3a7"/><circle class="marker" cx="526.9" cy="121.2" r="3.5" fill="#3a7"/><circle class="marker" cx="553.8" cy="121.1" r="3.5" fill="#3a7"/><circle class="marker" cx="580.7" cy="121.0" r="3.5" fill="#3a7"/><circle class="marker" cx="607.6" cy="121.0" r="3.5" fill="#3a7"/><circle class="marker" cx="634.4" cy="120.9" r="3.5" fill="#3a7"/><circle class="marker" cx="661.3" cy="120.8" r="3.5" fill="#3a7"/><circle class="marker" cx="688.2" cy="120.7" r="3.5" fill="#3a7"/><circle class="marker" cx="715.1" cy="120.1" r="3.5" fill="#3a7"/><circle class="marker" cx="742.0" cy="119.6" r="3.5" fill="#3a7"/><circle class="marker" cx="768.8" cy="118.6" r="3.5" fill="#3a7"/><circle class="marker" cx="795.7" cy="118.2" r="3.5" fill="#3a7"/><circle class="marker" cx="822.6" cy="117.7" r="3.5" fill="#3a7"/><circle class="marker" cx="849.5" cy="117.3" r="3.5" fill="#3a7"/><circle class="marker" cx="876.3" cy="116.8" r="3.5" fill="#3a7"/><circle class="marker" cx="903.2" cy="116.3" r="3.5" fill="#3a7"/><circle class="marker" cx="930.1" cy="115.8" r="3.5" fill="#3a7"/><circle class="marker" cx="957.0" cy="115.1" r="3.5" fill="#3a7"/><circle class="marker" cx="983.9" cy="113.8" r="3.5" fill="#3a7"/><circle class="marker" cx="1010.7" cy="112.3" r="3.5" fill="#3a7"/><circle class="marker" cx="1037.6" cy="111.0" r="3.5" fill="#3a7"/><circle class="marker" cx="1064.5" cy="109.3" r="3.5" fill="#3a7"/><circle class="marker" cx="1091.4" cy="108.4" r="3.5" fill="#3a7"/><circle class="marker" cx="1118.2" cy="104.4" r="3.5" fill="#3a7"/><circle class="marker" cx="1145.1" cy="99.1" r="3.5" fill="#3a7"/><circle class="marker" cx="1172.0" cy="93.6" r="3.5" fill="#3a7"/><path class="curve" d="M96.9,115.0 L123.8,115.0 L150.6,115.0 L177.5,115.0 L204.4,115.0 L231.3,115.0 L258.1,115.0 L285.0,115.0 L311.9,115.0 L338.8,115.0 L365.7,115.0 L392.5,115.0 L419.4,115.0 L446.3,115.0 L473.2,115.0 L500.0,115.0 L526.9,115.0 L553.8,115.0 L580.7,115.0 L607.6,115.0 L634.4,115.0 L661.3,115.0 L688.2,115.0 L715.1,115.0 L742.0,115.0 L768.8,115.0 L795.7,115.0 L822.6,115.0 L849.5,115.0 L876.3,115.0 L903.2,115.0 L930.1,115.0 L957.0,115.0 L983.9,115.0 L1010.7,115.0 L1037.6,115.0 L1064.5,115.0 L1091.4,114.6 L1118.2,111.2 L1145.1,104.4 L1172.0,101.3" stroke="#06c"/><circle class="marker" cx="96.9" cy="115.0" r="3.5" fill="#06c"/><circle class="marker" cx="123.8" cy="115.0" r="3.5" fill="#06c"/><circle class="marker" cx="150.6" cy="115.0" r="3.5" fill="#06c"/><circle class="marker" cx="177.5" cy="115.0" r="3.5" fill="#06c"/><circle class="marker" cx="204.4" cy="115.0" r="3.5" fill="#06c"/><circle class="marker" cx="231.3" cy="115.0" r="3.5" fill="#06c"/><circle class="marker" cx="258.1" cy="115.0" r="3.5" fill="#06c"/><circle class="marker" cx="285.0" cy="115.0" r="3.5" fill="#06c"/><circle class="marker" cx="311.9" cy="115.0" r="3.5" fill="#06c"/><circle class="marker" cx="338.8" cy="115.0" r="3.5" fill="#06c"/><circle class="marker" cx="365.7" cy="115.0" r="3.5" fill="#06c"/><circle class="marker" cx="392.5" cy="115.0" r="3.5" fill="#06c"/><circle class="marker" cx="419.4" cy="115.0" r="3.5" fill="#06c"/><circle class="marker" cx="446.3" cy="115.0" r="3.5" fill="#06c"/><circle class="marker" cx="473.2" cy="115.0" r="3.5" fill="#06c"/><circle class="marker" cx="500.0" cy="115.0" r="3.5" fill="#06c"/><circle class="marker" cx="526.9" cy="115.0" r="3.5" fill="#06c"/><circle class="marker" cx="553.8" cy="115.0" r="3.5" fill="#06c"/><circle class="marker" cx="580.7" cy="115.0" r="3.5" fill="#06c"/><circle class="marker" cx="607.6" cy="115.0" r="3.5" fill="#06c"/><circle class="marker" cx="634.4" cy="115.0" r="3.5" fill="#06c"/><circle class="marker" cx="661.3" cy="115.0" r="3.5" fill="#06c"/><circle class="marker" cx="688.2" cy="115.0" r="3.5" fill="#06c"/><circle class="marker" cx="715.1" cy="115.0" r="3.5" fill="#06c"/><circle class="marker" cx="742.0" cy="115.0" r="3.5" fill="#06c"/><circle class="marker" cx="768.8" cy="115.0" r="3.5" fill="#06c"/><circle class="marker" cx="795.7" cy="115.0" r="3.5" fill="#06c"/><circle class="marker" cx="822.6" cy="115.0" r="3.5" fill="#06c"/><circle class="marker" cx="849.5" cy="115.0" r="3.5" fill="#06c"/><circle class="marker" cx="876.3" cy="115.0" r="3.5" fill="#06c"/><circle class="marker" cx="903.2" cy="115.0" r="3.5" fill="#06c"/><circle class="marker" cx="930.1" cy="115.0" r="3.5" fill="#06c"/><circle class="marker" cx="957.0" cy="115.0" r="3.5" fill="#06c"/><circle class="marker" cx="983.9" cy="115.0" r="3.5" fill="#06c"/><circle class="marker" cx="1010.7" cy="115.0" r="3.5" fill="#06c"/><circle class="marker" cx="1037.6" cy="115.0" r="3.5" fill="#06c"/><circle class="marker" cx="1064.5" cy="115.0" r="3.5" fill="#06c"/><circle class="marker" cx="1091.4" cy="114.6" r="3.5" fill="#06c"/><circle class="marker" cx="1118.2" cy="111.2" r="3.5" fill="#06c"/><circle class="marker" cx="1145.1" cy="104.4" r="3.5" fill="#06c"/><circle class="marker" cx="1172.0" cy="101.3" r="3.5" fill="#06c"/><line x1="1088.0" y1="12.0" x2="1106.0" y2="12.0" stroke="#06c" stroke-width="2.25" stroke-linecap="round"/><circle cx="1097.0" cy="12.0" r="3.5" fill="#06c" stroke="#fff" stroke-width="1"/><text class="legend-text" x="1112.0" y="16.0">ensemble</text><line x1="976.0" y1="12.0" x2="994.0" y2="12.0" stroke="#3a7" stroke-width="2.25" stroke-linecap="round"/><circle cx="985.0" cy="12.0" r="3.5" fill="#3a7" stroke="#fff" stroke-width="1"/><text class="legend-text" x="1000.0" y="16.0">specialist</text><line x1="885.0" y1="12.0" x2="903.0" y2="12.0" stroke="#888" stroke-width="2.25" stroke-linecap="round"/><circle cx="894.0" cy="12.0" r="3.5" fill="#888" stroke="#fff" stroke-width="1"/><text class="legend-text" x="909.0" y="16.0">general</text></svg>